<mxfile host="65bd71144e" pages="3">
    <diagram id="03BrkeGFtgl9X5l-Cpky" name="遷移図（フロント）">
        <mxGraphModel dx="898" dy="635" grid="1" gridSize="10" guides="1" tooltips="1" connect="1" arrows="1" fold="1" page="0" pageScale="1" pageWidth="850" pageHeight="1100" math="0" shadow="0">
            <root>
                <mxCell id="-LNbFfWy4VRCoGntfb6J-0"/>
                <mxCell id="-LNbFfWy4VRCoGntfb6J-1" parent="-LNbFfWy4VRCoGntfb6J-0"/>
                <mxCell id="WpjEhhEw5nwKYmz1SSpM-0" value="Home" style="rounded=0;whiteSpace=wrap;html=1;" parent="-LNbFfWy4VRCoGntfb6J-1" vertex="1">
                    <mxGeometry x="60" y="10" width="110" height="60" as="geometry"/>
                </mxCell>
                <mxCell id="WpjEhhEw5nwKYmz1SSpM-1" value="" style="endArrow=classic;html=1;exitX=1;exitY=0.5;exitDx=0;exitDy=0;" parent="-LNbFfWy4VRCoGntfb6J-1" source="WpjEhhEw5nwKYmz1SSpM-0" edge="1">
                    <mxGeometry width="50" height="50" relative="1" as="geometry">
                        <mxPoint x="300" y="180" as="sourcePoint"/>
                        <mxPoint x="279.9999999999998" y="40" as="targetPoint"/>
                    </mxGeometry>
                </mxCell>
                <mxCell id="WpjEhhEw5nwKYmz1SSpM-2" value="Concept" style="rounded=0;whiteSpace=wrap;html=1;" parent="-LNbFfWy4VRCoGntfb6J-1" vertex="1">
                    <mxGeometry x="280" y="450" width="110" height="60" as="geometry"/>
                </mxCell>
                <mxCell id="WpjEhhEw5nwKYmz1SSpM-3" value="商品一覧" style="rounded=0;whiteSpace=wrap;html=1;" parent="-LNbFfWy4VRCoGntfb6J-1" vertex="1">
                    <mxGeometry x="280" y="10" width="110" height="60" as="geometry"/>
                </mxCell>
                <mxCell id="WpjEhhEw5nwKYmz1SSpM-4" value="" style="endArrow=classic;html=1;" parent="-LNbFfWy4VRCoGntfb6J-1" edge="1">
                    <mxGeometry width="50" height="50" relative="1" as="geometry">
                        <mxPoint x="222.99999999999977" y="158.5" as="sourcePoint"/>
                        <mxPoint x="283" y="158.5" as="targetPoint"/>
                    </mxGeometry>
                </mxCell>
                <mxCell id="WpjEhhEw5nwKYmz1SSpM-5" value="" style="endArrow=none;html=1;" parent="-LNbFfWy4VRCoGntfb6J-1" edge="1">
                    <mxGeometry width="50" height="50" relative="1" as="geometry">
                        <mxPoint x="220" y="570" as="sourcePoint"/>
                        <mxPoint x="219.99999999999977" y="40" as="targetPoint"/>
                    </mxGeometry>
                </mxCell>
                <mxCell id="WpjEhhEw5nwKYmz1SSpM-6" value="商品イメージ（フライパン、ディープフライパン等）" style="rounded=0;whiteSpace=wrap;html=1;" parent="-LNbFfWy4VRCoGntfb6J-1" vertex="1">
                    <mxGeometry x="490" y="10" width="110" height="60" as="geometry"/>
                </mxCell>
                <mxCell id="WpjEhhEw5nwKYmz1SSpM-7" value="" style="endArrow=classic;html=1;exitX=1;exitY=0.5;exitDx=0;exitDy=0;entryX=0;entryY=0.5;entryDx=0;entryDy=0;" parent="-LNbFfWy4VRCoGntfb6J-1" source="WpjEhhEw5nwKYmz1SSpM-3" target="WpjEhhEw5nwKYmz1SSpM-6" edge="1">
                    <mxGeometry width="50" height="50" relative="1" as="geometry">
                        <mxPoint x="230" y="50" as="sourcePoint"/>
                        <mxPoint x="490" y="110" as="targetPoint"/>
                    </mxGeometry>
                </mxCell>
                <mxCell id="WpjEhhEw5nwKYmz1SSpM-8" value="商品イメージを選択" style="text;html=1;strokeColor=none;fillColor=none;align=center;verticalAlign=middle;whiteSpace=wrap;rounded=0;" parent="-LNbFfWy4VRCoGntfb6J-1" vertex="1">
                    <mxGeometry x="400" y="10" width="80" height="20" as="geometry"/>
                </mxCell>
                <mxCell id="WpjEhhEw5nwKYmz1SSpM-10" value="メニューバーもしくはHomeから選択" style="text;html=1;strokeColor=none;fillColor=none;align=center;verticalAlign=middle;whiteSpace=wrap;rounded=0;" parent="-LNbFfWy4VRCoGntfb6J-1" vertex="1">
                    <mxGeometry x="170" y="10" width="110" height="20" as="geometry"/>
                </mxCell>
                <mxCell id="WpjEhhEw5nwKYmz1SSpM-14" value="" style="endArrow=classic;html=1;entryX=0;entryY=0.5;entryDx=0;entryDy=0;" parent="-LNbFfWy4VRCoGntfb6J-1" edge="1">
                    <mxGeometry width="50" height="50" relative="1" as="geometry">
                        <mxPoint x="219.99999999999977" y="279.5" as="sourcePoint"/>
                        <mxPoint x="279.9999999999998" y="279.5" as="targetPoint"/>
                    </mxGeometry>
                </mxCell>
                <mxCell id="WpjEhhEw5nwKYmz1SSpM-15" value="ご利用ガイド" style="rounded=0;whiteSpace=wrap;html=1;" parent="-LNbFfWy4VRCoGntfb6J-1" vertex="1">
                    <mxGeometry x="280" y="534" width="110" height="60" as="geometry"/>
                </mxCell>
                <mxCell id="WpjEhhEw5nwKYmz1SSpM-16" value="お問い合わせ" style="rounded=0;whiteSpace=wrap;html=1;" parent="-LNbFfWy4VRCoGntfb6J-1" vertex="1">
                    <mxGeometry x="488" y="534" width="110" height="60" as="geometry"/>
                </mxCell>
                <mxCell id="WpjEhhEw5nwKYmz1SSpM-17" value="&lt;span style=&quot;color: rgb(0 , 0 , 0) ; font-family: &amp;#34;helvetica&amp;#34; ; font-size: 12px ; font-style: normal ; font-weight: 400 ; letter-spacing: normal ; text-align: center ; text-indent: 0px ; text-transform: none ; word-spacing: 0px ; background-color: rgb(248 , 249 , 250) ; display: inline ; float: none&quot;&gt;「お問い合わせフォームはこちらから」を選択&lt;/span&gt;" style="text;html=1;strokeColor=none;fillColor=none;align=center;verticalAlign=middle;whiteSpace=wrap;rounded=0;" parent="-LNbFfWy4VRCoGntfb6J-1" vertex="1">
                    <mxGeometry x="393" y="530" width="90" height="20" as="geometry"/>
                </mxCell>
                <mxCell id="WpjEhhEw5nwKYmz1SSpM-18" value="" style="endArrow=classic;html=1;entryX=0;entryY=0.5;entryDx=0;entryDy=0;" parent="-LNbFfWy4VRCoGntfb6J-1" target="WpjEhhEw5nwKYmz1SSpM-16" edge="1">
                    <mxGeometry width="50" height="50" relative="1" as="geometry">
                        <mxPoint x="389.9999999999998" y="564" as="sourcePoint"/>
                        <mxPoint x="498" y="494" as="targetPoint"/>
                        <Array as="points"/>
                    </mxGeometry>
                </mxCell>
                <mxCell id="WpjEhhEw5nwKYmz1SSpM-19" value="確認画面" style="rounded=0;whiteSpace=wrap;html=1;" parent="-LNbFfWy4VRCoGntfb6J-1" vertex="1">
                    <mxGeometry x="697" y="534" width="110" height="60" as="geometry"/>
                </mxCell>
                <mxCell id="WpjEhhEw5nwKYmz1SSpM-20" value="" style="endArrow=classic;html=1;entryX=0;entryY=0.5;entryDx=0;entryDy=0;" parent="-LNbFfWy4VRCoGntfb6J-1" target="WpjEhhEw5nwKYmz1SSpM-19" edge="1">
                    <mxGeometry width="50" height="50" relative="1" as="geometry">
                        <mxPoint x="598" y="564" as="sourcePoint"/>
                        <mxPoint x="706" y="494" as="targetPoint"/>
                        <Array as="points"/>
                    </mxGeometry>
                </mxCell>
                <mxCell id="WpjEhhEw5nwKYmz1SSpM-21" value="&lt;span style=&quot;color: rgb(0 , 0 , 0) ; font-family: &amp;#34;helvetica&amp;#34; ; font-size: 12px ; font-style: normal ; font-weight: 400 ; letter-spacing: normal ; text-align: center ; text-indent: 0px ; text-transform: none ; word-spacing: 0px ; background-color: rgb(248 , 249 , 250) ; display: inline ; float: none&quot;&gt;必須情報を入力&lt;/span&gt;" style="text;html=1;strokeColor=none;fillColor=none;align=center;verticalAlign=middle;whiteSpace=wrap;rounded=0;" parent="-LNbFfWy4VRCoGntfb6J-1" vertex="1">
                    <mxGeometry x="603" y="530" width="90" height="20" as="geometry"/>
                </mxCell>
                <mxCell id="WpjEhhEw5nwKYmz1SSpM-22" value="完了画面" style="rounded=0;whiteSpace=wrap;html=1;" parent="-LNbFfWy4VRCoGntfb6J-1" vertex="1">
                    <mxGeometry x="904" y="534" width="110" height="60" as="geometry"/>
                </mxCell>
                <mxCell id="WpjEhhEw5nwKYmz1SSpM-23" value="" style="endArrow=classic;html=1;entryX=0;entryY=0.5;entryDx=0;entryDy=0;" parent="-LNbFfWy4VRCoGntfb6J-1" edge="1">
                    <mxGeometry width="50" height="50" relative="1" as="geometry">
                        <mxPoint x="806" y="563.5" as="sourcePoint"/>
                        <mxPoint x="904" y="563.5" as="targetPoint"/>
                        <Array as="points"/>
                    </mxGeometry>
                </mxCell>
                <mxCell id="WpjEhhEw5nwKYmz1SSpM-24" value="&lt;font face=&quot;helvetica&quot;&gt;確定&lt;/font&gt;" style="text;html=1;strokeColor=none;fillColor=none;align=center;verticalAlign=middle;whiteSpace=wrap;rounded=0;" parent="-LNbFfWy4VRCoGntfb6J-1" vertex="1">
                    <mxGeometry x="806" y="530" width="90" height="20" as="geometry"/>
                </mxCell>
                <mxCell id="WpjEhhEw5nwKYmz1SSpM-26" value="カートの中" style="rounded=0;whiteSpace=wrap;html=1;" parent="-LNbFfWy4VRCoGntfb6J-1" vertex="1">
                    <mxGeometry x="283" y="129" width="110" height="60" as="geometry"/>
                </mxCell>
                <mxCell id="WpjEhhEw5nwKYmz1SSpM-27" value="" style="endArrow=classic;html=1;entryX=0;entryY=0.5;entryDx=0;entryDy=0;" parent="-LNbFfWy4VRCoGntfb6J-1" edge="1">
                    <mxGeometry width="50" height="50" relative="1" as="geometry">
                        <mxPoint x="219.99999999999977" y="563.5" as="sourcePoint"/>
                        <mxPoint x="279.9999999999998" y="563.5" as="targetPoint"/>
                    </mxGeometry>
                </mxCell>
                <mxCell id="WpjEhhEw5nwKYmz1SSpM-28" value="" style="endArrow=classic;html=1;entryX=0.5;entryY=0;entryDx=0;entryDy=0;" parent="-LNbFfWy4VRCoGntfb6J-1" target="WpjEhhEw5nwKYmz1SSpM-26" edge="1">
                    <mxGeometry width="50" height="50" relative="1" as="geometry">
                        <mxPoint x="338" y="100" as="sourcePoint"/>
                        <mxPoint x="550" y="110" as="targetPoint"/>
                    </mxGeometry>
                </mxCell>
                <mxCell id="WpjEhhEw5nwKYmz1SSpM-29" value="カートに入れる" style="text;html=1;strokeColor=none;fillColor=none;align=center;verticalAlign=middle;whiteSpace=wrap;rounded=0;" parent="-LNbFfWy4VRCoGntfb6J-1" vertex="1">
                    <mxGeometry x="560" y="80" width="87" height="20" as="geometry"/>
                </mxCell>
                <mxCell id="WpjEhhEw5nwKYmz1SSpM-30" value="" style="endArrow=none;html=1;" parent="-LNbFfWy4VRCoGntfb6J-1" edge="1">
                    <mxGeometry width="50" height="50" relative="1" as="geometry">
                        <mxPoint x="338" y="100" as="sourcePoint"/>
                        <mxPoint x="548" y="100" as="targetPoint"/>
                    </mxGeometry>
                </mxCell>
                <mxCell id="WpjEhhEw5nwKYmz1SSpM-31" value="" style="endArrow=none;html=1;entryX=0.5;entryY=1;entryDx=0;entryDy=0;" parent="-LNbFfWy4VRCoGntfb6J-1" target="WpjEhhEw5nwKYmz1SSpM-6" edge="1">
                    <mxGeometry width="50" height="50" relative="1" as="geometry">
                        <mxPoint x="544.9999999999998" y="100" as="sourcePoint"/>
                        <mxPoint x="560" y="110" as="targetPoint"/>
                    </mxGeometry>
                </mxCell>
                <mxCell id="WpjEhhEw5nwKYmz1SSpM-32" value="" style="endArrow=classic;html=1;" parent="-LNbFfWy4VRCoGntfb6J-1" edge="1">
                    <mxGeometry width="50" height="50" relative="1" as="geometry">
                        <mxPoint x="330" y="190" as="sourcePoint"/>
                        <mxPoint x="330" y="250" as="targetPoint"/>
                    </mxGeometry>
                </mxCell>
                <mxCell id="WpjEhhEw5nwKYmz1SSpM-33" value="お客様情報入力画面" style="rounded=0;whiteSpace=wrap;html=1;" parent="-LNbFfWy4VRCoGntfb6J-1" vertex="1">
                    <mxGeometry x="450" y="129" width="110" height="60" as="geometry"/>
                </mxCell>
                <mxCell id="WpjEhhEw5nwKYmz1SSpM-34" value="" style="endArrow=classic;html=1;entryX=0;entryY=0.5;entryDx=0;entryDy=0;" parent="-LNbFfWy4VRCoGntfb6J-1" edge="1">
                    <mxGeometry width="50" height="50" relative="1" as="geometry">
                        <mxPoint x="559.9999999999998" y="158.5" as="sourcePoint"/>
                        <mxPoint x="619.9999999999998" y="158.5" as="targetPoint"/>
                    </mxGeometry>
                </mxCell>
                <mxCell id="WpjEhhEw5nwKYmz1SSpM-35" value="発送・支払い方法" style="rounded=0;whiteSpace=wrap;html=1;" parent="-LNbFfWy4VRCoGntfb6J-1" vertex="1">
                    <mxGeometry x="620" y="129" width="110" height="60" as="geometry"/>
                </mxCell>
                <mxCell id="WpjEhhEw5nwKYmz1SSpM-36" value="確認画面" style="rounded=0;whiteSpace=wrap;html=1;" parent="-LNbFfWy4VRCoGntfb6J-1" vertex="1">
                    <mxGeometry x="791" y="129" width="110" height="60" as="geometry"/>
                </mxCell>
                <mxCell id="WpjEhhEw5nwKYmz1SSpM-37" value="完了画面" style="rounded=0;whiteSpace=wrap;html=1;" parent="-LNbFfWy4VRCoGntfb6J-1" vertex="1">
                    <mxGeometry x="960" y="129" width="110" height="60" as="geometry"/>
                </mxCell>
                <mxCell id="WpjEhhEw5nwKYmz1SSpM-38" value="" style="endArrow=classic;html=1;entryX=0;entryY=0.5;entryDx=0;entryDy=0;" parent="-LNbFfWy4VRCoGntfb6J-1" edge="1">
                    <mxGeometry width="50" height="50" relative="1" as="geometry">
                        <mxPoint x="730" y="158.5" as="sourcePoint"/>
                        <mxPoint x="790" y="158.5" as="targetPoint"/>
                    </mxGeometry>
                </mxCell>
                <mxCell id="WpjEhhEw5nwKYmz1SSpM-39" value="" style="endArrow=classic;html=1;entryX=0;entryY=0.5;entryDx=0;entryDy=0;" parent="-LNbFfWy4VRCoGntfb6J-1" edge="1">
                    <mxGeometry width="50" height="50" relative="1" as="geometry">
                        <mxPoint x="901" y="158.5" as="sourcePoint"/>
                        <mxPoint x="961" y="158.5" as="targetPoint"/>
                    </mxGeometry>
                </mxCell>
                <mxCell id="WpjEhhEw5nwKYmz1SSpM-40" value="次へ" style="text;html=1;strokeColor=none;fillColor=none;align=center;verticalAlign=middle;whiteSpace=wrap;rounded=0;" parent="-LNbFfWy4VRCoGntfb6J-1" vertex="1">
                    <mxGeometry x="400" y="129" width="40" height="20" as="geometry"/>
                </mxCell>
                <mxCell id="WpjEhhEw5nwKYmz1SSpM-41" value="次へ" style="text;html=1;strokeColor=none;fillColor=none;align=center;verticalAlign=middle;whiteSpace=wrap;rounded=0;" parent="-LNbFfWy4VRCoGntfb6J-1" vertex="1">
                    <mxGeometry x="570" y="129" width="40" height="20" as="geometry"/>
                </mxCell>
                <mxCell id="WpjEhhEw5nwKYmz1SSpM-42" value="次へ" style="text;html=1;strokeColor=none;fillColor=none;align=center;verticalAlign=middle;whiteSpace=wrap;rounded=0;" parent="-LNbFfWy4VRCoGntfb6J-1" vertex="1">
                    <mxGeometry x="740" y="129" width="40" height="20" as="geometry"/>
                </mxCell>
                <mxCell id="WpjEhhEw5nwKYmz1SSpM-43" value="次へ" style="text;html=1;strokeColor=none;fillColor=none;align=center;verticalAlign=middle;whiteSpace=wrap;rounded=0;" parent="-LNbFfWy4VRCoGntfb6J-1" vertex="1">
                    <mxGeometry x="910" y="129" width="40" height="20" as="geometry"/>
                </mxCell>
                <mxCell id="WpjEhhEw5nwKYmz1SSpM-45" value="ログインページ" style="rounded=0;whiteSpace=wrap;html=1;" parent="-LNbFfWy4VRCoGntfb6J-1" vertex="1">
                    <mxGeometry x="280" y="250" width="110" height="60" as="geometry"/>
                </mxCell>
                <mxCell id="WpjEhhEw5nwKYmz1SSpM-48" value="" style="endArrow=classic;html=1;entryX=0;entryY=0.5;entryDx=0;entryDy=0;" parent="-LNbFfWy4VRCoGntfb6J-1" edge="1">
                    <mxGeometry width="50" height="50" relative="1" as="geometry">
                        <mxPoint x="389.9999999999998" y="158.5" as="sourcePoint"/>
                        <mxPoint x="449.9999999999998" y="158.5" as="targetPoint"/>
                    </mxGeometry>
                </mxCell>
                <mxCell id="WpjEhhEw5nwKYmz1SSpM-49" value="ログイン画面へ" style="text;html=1;strokeColor=none;fillColor=none;align=center;verticalAlign=middle;whiteSpace=wrap;rounded=0;" parent="-LNbFfWy4VRCoGntfb6J-1" vertex="1">
                    <mxGeometry x="340" y="210" width="90" height="20" as="geometry"/>
                </mxCell>
                <mxCell id="WpjEhhEw5nwKYmz1SSpM-50" value="" style="endArrow=classic;html=1;entryX=0;entryY=0.5;entryDx=0;entryDy=0;" parent="-LNbFfWy4VRCoGntfb6J-1" edge="1">
                    <mxGeometry width="50" height="50" relative="1" as="geometry">
                        <mxPoint x="389.9999999999998" y="279.5" as="sourcePoint"/>
                        <mxPoint x="449.9999999999998" y="279.5" as="targetPoint"/>
                    </mxGeometry>
                </mxCell>
                <mxCell id="WpjEhhEw5nwKYmz1SSpM-51" value="カートの中" style="rounded=0;whiteSpace=wrap;html=1;" parent="-LNbFfWy4VRCoGntfb6J-1" vertex="1">
                    <mxGeometry x="450" y="250" width="110" height="60" as="geometry"/>
                </mxCell>
                <mxCell id="WpjEhhEw5nwKYmz1SSpM-52" value="購入履歴" style="rounded=0;whiteSpace=wrap;html=1;" parent="-LNbFfWy4VRCoGntfb6J-1" vertex="1">
                    <mxGeometry x="450" y="350" width="110" height="60" as="geometry"/>
                </mxCell>
                <mxCell id="WpjEhhEw5nwKYmz1SSpM-53" value="" style="endArrow=classic;html=1;entryX=0.5;entryY=1;entryDx=0;entryDy=0;" parent="-LNbFfWy4VRCoGntfb6J-1" target="WpjEhhEw5nwKYmz1SSpM-36" edge="1">
                    <mxGeometry width="50" height="50" relative="1" as="geometry">
                        <mxPoint x="846" y="280" as="sourcePoint"/>
                        <mxPoint x="859.9999999999998" y="260" as="targetPoint"/>
                    </mxGeometry>
                </mxCell>
                <mxCell id="WpjEhhEw5nwKYmz1SSpM-54" value="" style="endArrow=none;html=1;" parent="-LNbFfWy4VRCoGntfb6J-1" edge="1">
                    <mxGeometry width="50" height="50" relative="1" as="geometry">
                        <mxPoint x="560" y="279.5" as="sourcePoint"/>
                        <mxPoint x="850" y="280" as="targetPoint"/>
                    </mxGeometry>
                </mxCell>
                <mxCell id="WpjEhhEw5nwKYmz1SSpM-55" value="" style="endArrow=classic;html=1;entryX=0;entryY=0.5;entryDx=0;entryDy=0;" parent="-LNbFfWy4VRCoGntfb6J-1" edge="1">
                    <mxGeometry width="50" height="50" relative="1" as="geometry">
                        <mxPoint x="420" y="380" as="sourcePoint"/>
                        <mxPoint x="449.9999999999998" y="379.5" as="targetPoint"/>
                    </mxGeometry>
                </mxCell>
                <mxCell id="WpjEhhEw5nwKYmz1SSpM-56" value="" style="endArrow=none;html=1;" parent="-LNbFfWy4VRCoGntfb6J-1" edge="1">
                    <mxGeometry width="50" height="50" relative="1" as="geometry">
                        <mxPoint x="420" y="280" as="sourcePoint"/>
                        <mxPoint x="420" y="460" as="targetPoint"/>
                    </mxGeometry>
                </mxCell>
                <mxCell id="WpjEhhEw5nwKYmz1SSpM-57" value="" style="endArrow=classic;html=1;entryX=0;entryY=0.5;entryDx=0;entryDy=0;" parent="-LNbFfWy4VRCoGntfb6J-1" edge="1">
                    <mxGeometry width="50" height="50" relative="1" as="geometry">
                        <mxPoint x="219.99999999999977" y="479.5" as="sourcePoint"/>
                        <mxPoint x="279.9999999999998" y="479.5" as="targetPoint"/>
                    </mxGeometry>
                </mxCell>
                <mxCell id="06zo2Mv_y4kSTuhGuv0J-0" value="" style="endArrow=classic;html=1;entryX=0;entryY=0.5;entryDx=0;entryDy=0;" parent="-LNbFfWy4VRCoGntfb6J-1" edge="1">
                    <mxGeometry width="50" height="50" relative="1" as="geometry">
                        <mxPoint x="559.9999999999998" y="379.5" as="sourcePoint"/>
                        <mxPoint x="619.9999999999998" y="379.5" as="targetPoint"/>
                    </mxGeometry>
                </mxCell>
                <mxCell id="06zo2Mv_y4kSTuhGuv0J-1" value="レビューを書く" style="rounded=0;whiteSpace=wrap;html=1;" parent="-LNbFfWy4VRCoGntfb6J-1" vertex="1">
                    <mxGeometry x="620" y="350" width="110" height="60" as="geometry"/>
                </mxCell>
                <mxCell id="wajUmvp9-B91PZflUEB6-2" value="お知らせ" style="rounded=0;whiteSpace=wrap;html=1;" parent="-LNbFfWy4VRCoGntfb6J-1" vertex="1">
                    <mxGeometry x="450" y="430" width="110" height="60" as="geometry"/>
                </mxCell>
                <mxCell id="wajUmvp9-B91PZflUEB6-3" value="" style="endArrow=classic;html=1;entryX=0;entryY=0.5;entryDx=0;entryDy=0;" parent="-LNbFfWy4VRCoGntfb6J-1" edge="1">
                    <mxGeometry width="50" height="50" relative="1" as="geometry">
                        <mxPoint x="420" y="460" as="sourcePoint"/>
                        <mxPoint x="449.9999999999998" y="459.5" as="targetPoint"/>
                    </mxGeometry>
                </mxCell>
            </root>
        </mxGraphModel>
    </diagram>
    <diagram id="RAMG6M0wDkum7FQ5hk13" name="管理図（サーバーサイド）">
        &#xa;
        <mxGraphModel dx="245" dy="621" grid="0" gridSize="10" guides="1" tooltips="1" connect="1" arrows="1" fold="1" page="1" pageScale="1" pageWidth="3300" pageHeight="4681" math="0" shadow="0">
            &#xa;
            <root>
                &#xa;
                <mxCell id="KEnhfVweKi8ohEG_Eb6k-0"/>
                &#xa;
                <mxCell id="KEnhfVweKi8ohEG_Eb6k-1" parent="KEnhfVweKi8ohEG_Eb6k-0"/>
                &#xa;
                <mxCell id="tt4s3VhXW8ChMxrACVPS-0" value="ログイン" style="rounded=0;whiteSpace=wrap;html=1;" parent="KEnhfVweKi8ohEG_Eb6k-1" vertex="1">
                    &#xa;
                    <mxGeometry x="40" y="571.5" width="110" height="60" as="geometry"/>
                    &#xa;
                </mxCell>
                &#xa;
                <mxCell id="tt4s3VhXW8ChMxrACVPS-1" value="" style="endArrow=classic;html=1;exitX=1;exitY=0.5;exitDx=0;exitDy=0;" parent="KEnhfVweKi8ohEG_Eb6k-1" source="tt4s3VhXW8ChMxrACVPS-0" edge="1">
                    &#xa;
                    <mxGeometry width="50" height="50" relative="1" as="geometry">
                        &#xa;
                        <mxPoint x="280" y="741.5" as="sourcePoint"/>
                        &#xa;
                        <mxPoint x="259.9999999999998" y="601.5" as="targetPoint"/>
                        &#xa;
                    </mxGeometry>
                    &#xa;
                </mxCell>
                &#xa;
                <mxCell id="THwuaI0fnQ7KmIa5b59G-0" value="商品一覧&lt;br&gt;検索機能&lt;br&gt;CSVダウンロード機能" style="rounded=0;whiteSpace=wrap;html=1;" parent="KEnhfVweKi8ohEG_Eb6k-1" vertex="1">
                    &#xa;
                    <mxGeometry x="260" y="460" width="110" height="460" as="geometry"/>
                    &#xa;
                </mxCell>
                &#xa;
                <mxCell id="THwuaI0fnQ7KmIa5b59G-1" value="" style="endArrow=classic;html=1;exitX=1;exitY=0.5;exitDx=0;exitDy=0;" parent="KEnhfVweKi8ohEG_Eb6k-1" edge="1">
                    &#xa;
                    <mxGeometry width="50" height="50" relative="1" as="geometry">
                        &#xa;
                        <mxPoint x="370" y="609.41" as="sourcePoint"/>
                        &#xa;
                        <mxPoint x="479.9999999999998" y="609.41" as="targetPoint"/>
                        &#xa;
                    </mxGeometry>
                    &#xa;
                </mxCell>
                &#xa;
                <mxCell id="THwuaI0fnQ7KmIa5b59G-2" value="選択した商品の詳細情報" style="rounded=0;whiteSpace=wrap;html=1;" parent="KEnhfVweKi8ohEG_Eb6k-1" vertex="1">
                    &#xa;
                    <mxGeometry x="480" y="580" width="110" height="60" as="geometry"/>
                    &#xa;
                </mxCell>
                &#xa;
                <mxCell id="THwuaI0fnQ7KmIa5b59G-3" value="商品を選択して「編集」" style="text;html=1;strokeColor=none;fillColor=none;align=center;verticalAlign=middle;whiteSpace=wrap;rounded=0;" parent="KEnhfVweKi8ohEG_Eb6k-1" vertex="1">
                    &#xa;
                    <mxGeometry x="390" y="580" width="80" height="20" as="geometry"/>
                    &#xa;
                </mxCell>
                &#xa;
                <mxCell id="THwuaI0fnQ7KmIa5b59G-4" value="確認画面" style="rounded=0;whiteSpace=wrap;html=1;" parent="KEnhfVweKi8ohEG_Eb6k-1" vertex="1">
                    &#xa;
                    <mxGeometry x="700" y="580" width="110" height="60" as="geometry"/>
                    &#xa;
                </mxCell>
                &#xa;
                <mxCell id="THwuaI0fnQ7KmIa5b59G-5" value="" style="endArrow=classic;html=1;exitX=1;exitY=0.5;exitDx=0;exitDy=0;" parent="KEnhfVweKi8ohEG_Eb6k-1" edge="1">
                    &#xa;
                    <mxGeometry width="50" height="50" relative="1" as="geometry">
                        &#xa;
                        <mxPoint x="590" y="609" as="sourcePoint"/>
                        &#xa;
                        <mxPoint x="699.9999999999998" y="609" as="targetPoint"/>
                        &#xa;
                    </mxGeometry>
                    &#xa;
                </mxCell>
                &#xa;
                <mxCell id="THwuaI0fnQ7KmIa5b59G-6" value="編集する" style="text;html=1;strokeColor=none;fillColor=none;align=center;verticalAlign=middle;whiteSpace=wrap;rounded=0;" parent="KEnhfVweKi8ohEG_Eb6k-1" vertex="1">
                    &#xa;
                    <mxGeometry x="620" y="580" width="50" height="20" as="geometry"/>
                    &#xa;
                </mxCell>
                &#xa;
                <mxCell id="THwuaI0fnQ7KmIa5b59G-10" value="" style="endArrow=none;html=1;" parent="KEnhfVweKi8ohEG_Eb6k-1" edge="1">
                    &#xa;
                    <mxGeometry width="50" height="50" relative="1" as="geometry">
                        &#xa;
                        <mxPoint x="760" y="670" as="sourcePoint"/>
                        &#xa;
                        <mxPoint x="760.24" y="640" as="targetPoint"/>
                        &#xa;
                        <Array as="points">
                            &#xa;
                            <mxPoint x="760" y="650"/>
                            &#xa;
                        </Array>
                        &#xa;
                    </mxGeometry>
                    &#xa;
                </mxCell>
                &#xa;
                <mxCell id="THwuaI0fnQ7KmIa5b59G-12" value="編集確定" style="text;html=1;strokeColor=none;fillColor=none;align=center;verticalAlign=middle;whiteSpace=wrap;rounded=0;" parent="KEnhfVweKi8ohEG_Eb6k-1" vertex="1">
                    &#xa;
                    <mxGeometry x="585" y="650" width="50" height="20" as="geometry"/>
                    &#xa;
                </mxCell>
                &#xa;
                <mxCell id="0OEoPDWZdtCzSNuWY8II-0" value="選択した商品の詳細情報" style="rounded=0;whiteSpace=wrap;html=1;" parent="KEnhfVweKi8ohEG_Eb6k-1" vertex="1">
                    &#xa;
                    <mxGeometry x="480" y="700" width="110" height="60" as="geometry"/>
                    &#xa;
                </mxCell>
                &#xa;
                <mxCell id="0OEoPDWZdtCzSNuWY8II-1" value="" style="endArrow=classic;html=1;exitX=1;exitY=0.5;exitDx=0;exitDy=0;" parent="KEnhfVweKi8ohEG_Eb6k-1" edge="1">
                    &#xa;
                    <mxGeometry width="50" height="50" relative="1" as="geometry">
                        &#xa;
                        <mxPoint x="590" y="729.41" as="sourcePoint"/>
                        &#xa;
                        <mxPoint x="699.9999999999998" y="729.41" as="targetPoint"/>
                        &#xa;
                    </mxGeometry>
                    &#xa;
                </mxCell>
                &#xa;
                <mxCell id="0OEoPDWZdtCzSNuWY8II-2" value="削除する" style="text;html=1;strokeColor=none;fillColor=none;align=center;verticalAlign=middle;whiteSpace=wrap;rounded=0;" parent="KEnhfVweKi8ohEG_Eb6k-1" vertex="1">
                    &#xa;
                    <mxGeometry x="600" y="700" width="80" height="20" as="geometry"/>
                    &#xa;
                </mxCell>
                &#xa;
                <mxCell id="0OEoPDWZdtCzSNuWY8II-4" value="商品を選択して「削除」" style="text;html=1;strokeColor=none;fillColor=none;align=center;verticalAlign=middle;whiteSpace=wrap;rounded=0;" parent="KEnhfVweKi8ohEG_Eb6k-1" vertex="1">
                    &#xa;
                    <mxGeometry x="380" y="700" width="80" height="20" as="geometry"/>
                    &#xa;
                </mxCell>
                &#xa;
                <mxCell id="0OEoPDWZdtCzSNuWY8II-6" value="商品情報の入力" style="rounded=0;whiteSpace=wrap;html=1;" parent="KEnhfVweKi8ohEG_Eb6k-1" vertex="1">
                    &#xa;
                    <mxGeometry x="480" y="460" width="110" height="60" as="geometry"/>
                    &#xa;
                </mxCell>
                &#xa;
                <mxCell id="0OEoPDWZdtCzSNuWY8II-7" value="新規登録" style="text;html=1;strokeColor=none;fillColor=none;align=center;verticalAlign=middle;whiteSpace=wrap;rounded=0;" parent="KEnhfVweKi8ohEG_Eb6k-1" vertex="1">
                    &#xa;
                    <mxGeometry x="389" y="460" width="80" height="20" as="geometry"/>
                    &#xa;
                </mxCell>
                &#xa;
                <mxCell id="0OEoPDWZdtCzSNuWY8II-9" value="" style="endArrow=classic;html=1;exitX=1;exitY=0.5;exitDx=0;exitDy=0;" parent="KEnhfVweKi8ohEG_Eb6k-1" edge="1">
                    &#xa;
                    <mxGeometry width="50" height="50" relative="1" as="geometry">
                        &#xa;
                        <mxPoint x="590" y="489.40999999999997" as="sourcePoint"/>
                        &#xa;
                        <mxPoint x="699.9999999999998" y="489.40999999999997" as="targetPoint"/>
                        &#xa;
                    </mxGeometry>
                    &#xa;
                </mxCell>
                &#xa;
                <mxCell id="0OEoPDWZdtCzSNuWY8II-10" value="登録する" style="text;html=1;strokeColor=none;fillColor=none;align=center;verticalAlign=middle;whiteSpace=wrap;rounded=0;" parent="KEnhfVweKi8ohEG_Eb6k-1" vertex="1">
                    &#xa;
                    <mxGeometry x="610" y="460" width="60" height="20" as="geometry"/>
                    &#xa;
                </mxCell>
                &#xa;
                <mxCell id="0OEoPDWZdtCzSNuWY8II-13" value="" style="endArrow=classic;html=1;" parent="KEnhfVweKi8ohEG_Eb6k-1" edge="1">
                    &#xa;
                    <mxGeometry width="50" height="50" relative="1" as="geometry">
                        &#xa;
                        <mxPoint x="760" y="550" as="sourcePoint"/>
                        &#xa;
                        <mxPoint x="371" y="550" as="targetPoint"/>
                        &#xa;
                    </mxGeometry>
                    &#xa;
                </mxCell>
                &#xa;
                <mxCell id="0OEoPDWZdtCzSNuWY8II-19" value="" style="endArrow=none;html=1;" parent="KEnhfVweKi8ohEG_Eb6k-1" edge="1">
                    &#xa;
                    <mxGeometry width="50" height="50" relative="1" as="geometry">
                        &#xa;
                        <mxPoint x="760" y="550" as="sourcePoint"/>
                        &#xa;
                        <mxPoint x="760.41" y="510" as="targetPoint"/>
                        &#xa;
                    </mxGeometry>
                    &#xa;
                </mxCell>
                &#xa;
                <mxCell id="0OEoPDWZdtCzSNuWY8II-20" value="登録確定" style="text;html=1;strokeColor=none;fillColor=none;align=center;verticalAlign=middle;whiteSpace=wrap;rounded=0;" parent="KEnhfVweKi8ohEG_Eb6k-1" vertex="1">
                    &#xa;
                    <mxGeometry x="580" y="530" width="60" height="20" as="geometry"/>
                    &#xa;
                </mxCell>
                &#xa;
                <mxCell id="7a5wDw-BUesBlL37iFo6-0" value="確認画面" style="rounded=0;whiteSpace=wrap;html=1;" parent="KEnhfVweKi8ohEG_Eb6k-1" vertex="1">
                    &#xa;
                    <mxGeometry x="700" y="700" width="110" height="60" as="geometry"/>
                    &#xa;
                </mxCell>
                &#xa;
                <mxCell id="7a5wDw-BUesBlL37iFo6-2" value="" style="endArrow=classic;html=1;exitX=1;exitY=0.5;exitDx=0;exitDy=0;" parent="KEnhfVweKi8ohEG_Eb6k-1" edge="1">
                    &#xa;
                    <mxGeometry width="50" height="50" relative="1" as="geometry">
                        &#xa;
                        <mxPoint x="370" y="490" as="sourcePoint"/>
                        &#xa;
                        <mxPoint x="479.9999999999998" y="490" as="targetPoint"/>
                        &#xa;
                    </mxGeometry>
                    &#xa;
                </mxCell>
                &#xa;
                <mxCell id="7a5wDw-BUesBlL37iFo6-4" value="確認画面" style="rounded=0;whiteSpace=wrap;html=1;" parent="KEnhfVweKi8ohEG_Eb6k-1" vertex="1">
                    &#xa;
                    <mxGeometry x="700" y="460" width="110" height="60" as="geometry"/>
                    &#xa;
                </mxCell>
                &#xa;
                <mxCell id="1WRzfnLV6UOE_Qinn_VW-0" value="" style="endArrow=classic;html=1;entryX=1.005;entryY=0.287;entryDx=0;entryDy=0;entryPerimeter=0;" parent="KEnhfVweKi8ohEG_Eb6k-1" edge="1">
                    &#xa;
                    <mxGeometry width="50" height="50" relative="1" as="geometry">
                        &#xa;
                        <mxPoint x="759.45" y="670" as="sourcePoint"/>
                        &#xa;
                        <mxPoint x="369.99999999999994" y="670.3600000000001" as="targetPoint"/>
                        &#xa;
                    </mxGeometry>
                    &#xa;
                </mxCell>
                &#xa;
                <mxCell id="1WRzfnLV6UOE_Qinn_VW-1" value="" style="endArrow=classic;html=1;exitX=1;exitY=0.5;exitDx=0;exitDy=0;" parent="KEnhfVweKi8ohEG_Eb6k-1" edge="1">
                    &#xa;
                    <mxGeometry width="50" height="50" relative="1" as="geometry">
                        &#xa;
                        <mxPoint x="370" y="729.4100000000001" as="sourcePoint"/>
                        &#xa;
                        <mxPoint x="479.9999999999998" y="729.4100000000001" as="targetPoint"/>
                        &#xa;
                    </mxGeometry>
                    &#xa;
                </mxCell>
                &#xa;
                <mxCell id="1WRzfnLV6UOE_Qinn_VW-2" value="" style="endArrow=none;html=1;" parent="KEnhfVweKi8ohEG_Eb6k-1" edge="1">
                    &#xa;
                    <mxGeometry width="50" height="50" relative="1" as="geometry">
                        &#xa;
                        <mxPoint x="760" y="790" as="sourcePoint"/>
                        &#xa;
                        <mxPoint x="760.24" y="760" as="targetPoint"/>
                        &#xa;
                        <Array as="points">
                            &#xa;
                            <mxPoint x="760" y="770"/>
                            &#xa;
                        </Array>
                        &#xa;
                    </mxGeometry>
                    &#xa;
                </mxCell>
                &#xa;
                <mxCell id="1WRzfnLV6UOE_Qinn_VW-3" value="削除確定" style="text;html=1;strokeColor=none;fillColor=none;align=center;verticalAlign=middle;whiteSpace=wrap;rounded=0;" parent="KEnhfVweKi8ohEG_Eb6k-1" vertex="1">
                    &#xa;
                    <mxGeometry x="585" y="770" width="50" height="20" as="geometry"/>
                    &#xa;
                </mxCell>
                &#xa;
                <mxCell id="1WRzfnLV6UOE_Qinn_VW-4" value="" style="endArrow=classic;html=1;entryX=1.005;entryY=0.287;entryDx=0;entryDy=0;entryPerimeter=0;" parent="KEnhfVweKi8ohEG_Eb6k-1" edge="1">
                    &#xa;
                    <mxGeometry width="50" height="50" relative="1" as="geometry">
                        &#xa;
                        <mxPoint x="759.45" y="790" as="sourcePoint"/>
                        &#xa;
                        <mxPoint x="370" y="790.3600000000001" as="targetPoint"/>
                        &#xa;
                    </mxGeometry>
                    &#xa;
                </mxCell>
                &#xa;
                <mxCell id="1WRzfnLV6UOE_Qinn_VW-5" value="会員（ユーザ）一覧&lt;br&gt;検索機能&lt;br&gt;CSVダウンロード機能" style="rounded=0;whiteSpace=wrap;html=1;" parent="KEnhfVweKi8ohEG_Eb6k-1" vertex="1">
                    &#xa;
                    <mxGeometry x="260" y="20" width="110" height="360" as="geometry"/>
                    &#xa;
                </mxCell>
                &#xa;
                <mxCell id="1WRzfnLV6UOE_Qinn_VW-6" value="" style="endArrow=classic;html=1;exitX=1;exitY=0.5;exitDx=0;exitDy=0;" parent="KEnhfVweKi8ohEG_Eb6k-1" edge="1">
                    &#xa;
                    <mxGeometry width="50" height="50" relative="1" as="geometry">
                        &#xa;
                        <mxPoint x="370" y="169.40999999999985" as="sourcePoint"/>
                        &#xa;
                        <mxPoint x="479.9999999999998" y="169.40999999999985" as="targetPoint"/>
                        &#xa;
                    </mxGeometry>
                    &#xa;
                </mxCell>
                &#xa;
                <mxCell id="1WRzfnLV6UOE_Qinn_VW-7" value="選択した会員の詳細情報" style="rounded=0;whiteSpace=wrap;html=1;" parent="KEnhfVweKi8ohEG_Eb6k-1" vertex="1">
                    &#xa;
                    <mxGeometry x="480" y="140" width="110" height="60" as="geometry"/>
                    &#xa;
                </mxCell>
                &#xa;
                <mxCell id="1WRzfnLV6UOE_Qinn_VW-8" value="会員を選択して「編集」" style="text;html=1;strokeColor=none;fillColor=none;align=center;verticalAlign=middle;whiteSpace=wrap;rounded=0;" parent="KEnhfVweKi8ohEG_Eb6k-1" vertex="1">
                    &#xa;
                    <mxGeometry x="390" y="140" width="80" height="20" as="geometry"/>
                    &#xa;
                </mxCell>
                &#xa;
                <mxCell id="1WRzfnLV6UOE_Qinn_VW-9" value="確認画面" style="rounded=0;whiteSpace=wrap;html=1;" parent="KEnhfVweKi8ohEG_Eb6k-1" vertex="1">
                    &#xa;
                    <mxGeometry x="700" y="140" width="110" height="60" as="geometry"/>
                    &#xa;
                </mxCell>
                &#xa;
                <mxCell id="1WRzfnLV6UOE_Qinn_VW-10" value="" style="endArrow=classic;html=1;exitX=1;exitY=0.5;exitDx=0;exitDy=0;" parent="KEnhfVweKi8ohEG_Eb6k-1" edge="1">
                    &#xa;
                    <mxGeometry width="50" height="50" relative="1" as="geometry">
                        &#xa;
                        <mxPoint x="590" y="168.99999999999977" as="sourcePoint"/>
                        &#xa;
                        <mxPoint x="699.9999999999998" y="168.99999999999977" as="targetPoint"/>
                        &#xa;
                    </mxGeometry>
                    &#xa;
                </mxCell>
                &#xa;
                <mxCell id="1WRzfnLV6UOE_Qinn_VW-11" value="編集する" style="text;html=1;strokeColor=none;fillColor=none;align=center;verticalAlign=middle;whiteSpace=wrap;rounded=0;" parent="KEnhfVweKi8ohEG_Eb6k-1" vertex="1">
                    &#xa;
                    <mxGeometry x="620" y="140" width="50" height="20" as="geometry"/>
                    &#xa;
                </mxCell>
                &#xa;
                <mxCell id="1WRzfnLV6UOE_Qinn_VW-12" value="" style="endArrow=none;html=1;" parent="KEnhfVweKi8ohEG_Eb6k-1" edge="1">
                    &#xa;
                    <mxGeometry width="50" height="50" relative="1" as="geometry">
                        &#xa;
                        <mxPoint x="760" y="230" as="sourcePoint"/>
                        &#xa;
                        <mxPoint x="760.24" y="200" as="targetPoint"/>
                        &#xa;
                        <Array as="points">
                            &#xa;
                            <mxPoint x="760" y="210"/>
                            &#xa;
                        </Array>
                        &#xa;
                    </mxGeometry>
                    &#xa;
                </mxCell>
                &#xa;
                <mxCell id="1WRzfnLV6UOE_Qinn_VW-13" value="編集確定" style="text;html=1;strokeColor=none;fillColor=none;align=center;verticalAlign=middle;whiteSpace=wrap;rounded=0;" parent="KEnhfVweKi8ohEG_Eb6k-1" vertex="1">
                    &#xa;
                    <mxGeometry x="585" y="210" width="50" height="20" as="geometry"/>
                    &#xa;
                </mxCell>
                &#xa;
                <mxCell id="1WRzfnLV6UOE_Qinn_VW-14" value="選択した会員の詳細情報" style="rounded=0;whiteSpace=wrap;html=1;" parent="KEnhfVweKi8ohEG_Eb6k-1" vertex="1">
                    &#xa;
                    <mxGeometry x="480" y="260" width="110" height="60" as="geometry"/>
                    &#xa;
                </mxCell>
                &#xa;
                <mxCell id="1WRzfnLV6UOE_Qinn_VW-15" value="" style="endArrow=classic;html=1;exitX=1;exitY=0.5;exitDx=0;exitDy=0;" parent="KEnhfVweKi8ohEG_Eb6k-1" edge="1">
                    &#xa;
                    <mxGeometry width="50" height="50" relative="1" as="geometry">
                        &#xa;
                        <mxPoint x="590" y="289.40999999999985" as="sourcePoint"/>
                        &#xa;
                        <mxPoint x="699.9999999999998" y="289.40999999999985" as="targetPoint"/>
                        &#xa;
                    </mxGeometry>
                    &#xa;
                </mxCell>
                &#xa;
                <mxCell id="1WRzfnLV6UOE_Qinn_VW-16" value="削除する" style="text;html=1;strokeColor=none;fillColor=none;align=center;verticalAlign=middle;whiteSpace=wrap;rounded=0;" parent="KEnhfVweKi8ohEG_Eb6k-1" vertex="1">
                    &#xa;
                    <mxGeometry x="600" y="260" width="80" height="20" as="geometry"/>
                    &#xa;
                </mxCell>
                &#xa;
                <mxCell id="1WRzfnLV6UOE_Qinn_VW-17" value="会員を選択して「削除」" style="text;html=1;strokeColor=none;fillColor=none;align=center;verticalAlign=middle;whiteSpace=wrap;rounded=0;" parent="KEnhfVweKi8ohEG_Eb6k-1" vertex="1">
                    &#xa;
                    <mxGeometry x="380" y="260" width="80" height="20" as="geometry"/>
                    &#xa;
                </mxCell>
                &#xa;
                <mxCell id="1WRzfnLV6UOE_Qinn_VW-18" value="新規会員情報の入力" style="rounded=0;whiteSpace=wrap;html=1;" parent="KEnhfVweKi8ohEG_Eb6k-1" vertex="1">
                    &#xa;
                    <mxGeometry x="480" y="20" width="110" height="60" as="geometry"/>
                    &#xa;
                </mxCell>
                &#xa;
                <mxCell id="1WRzfnLV6UOE_Qinn_VW-19" value="新規登録" style="text;html=1;strokeColor=none;fillColor=none;align=center;verticalAlign=middle;whiteSpace=wrap;rounded=0;" parent="KEnhfVweKi8ohEG_Eb6k-1" vertex="1">
                    &#xa;
                    <mxGeometry x="389" y="20" width="80" height="20" as="geometry"/>
                    &#xa;
                </mxCell>
                &#xa;
                <mxCell id="1WRzfnLV6UOE_Qinn_VW-20" value="" style="endArrow=classic;html=1;exitX=1;exitY=0.5;exitDx=0;exitDy=0;" parent="KEnhfVweKi8ohEG_Eb6k-1" edge="1">
                    &#xa;
                    <mxGeometry width="50" height="50" relative="1" as="geometry">
                        &#xa;
                        <mxPoint x="590" y="49.409999999999854" as="sourcePoint"/>
                        &#xa;
                        <mxPoint x="699.9999999999998" y="49.409999999999854" as="targetPoint"/>
                        &#xa;
                    </mxGeometry>
                    &#xa;
                </mxCell>
                &#xa;
                <mxCell id="1WRzfnLV6UOE_Qinn_VW-21" value="登録する" style="text;html=1;strokeColor=none;fillColor=none;align=center;verticalAlign=middle;whiteSpace=wrap;rounded=0;" parent="KEnhfVweKi8ohEG_Eb6k-1" vertex="1">
                    &#xa;
                    <mxGeometry x="610" y="20" width="60" height="20" as="geometry"/>
                    &#xa;
                </mxCell>
                &#xa;
                <mxCell id="1WRzfnLV6UOE_Qinn_VW-22" value="" style="endArrow=classic;html=1;" parent="KEnhfVweKi8ohEG_Eb6k-1" edge="1">
                    &#xa;
                    <mxGeometry width="50" height="50" relative="1" as="geometry">
                        &#xa;
                        <mxPoint x="760" y="110" as="sourcePoint"/>
                        &#xa;
                        <mxPoint x="370.9999999999998" y="110" as="targetPoint"/>
                        &#xa;
                    </mxGeometry>
                    &#xa;
                </mxCell>
                &#xa;
                <mxCell id="1WRzfnLV6UOE_Qinn_VW-23" value="" style="endArrow=none;html=1;" parent="KEnhfVweKi8ohEG_Eb6k-1" edge="1">
                    &#xa;
                    <mxGeometry width="50" height="50" relative="1" as="geometry">
                        &#xa;
                        <mxPoint x="760" y="110" as="sourcePoint"/>
                        &#xa;
                        <mxPoint x="760.4099999999999" y="70" as="targetPoint"/>
                        &#xa;
                    </mxGeometry>
                    &#xa;
                </mxCell>
                &#xa;
                <mxCell id="1WRzfnLV6UOE_Qinn_VW-24" value="登録確定" style="text;html=1;strokeColor=none;fillColor=none;align=center;verticalAlign=middle;whiteSpace=wrap;rounded=0;" parent="KEnhfVweKi8ohEG_Eb6k-1" vertex="1">
                    &#xa;
                    <mxGeometry x="580" y="90" width="60" height="20" as="geometry"/>
                    &#xa;
                </mxCell>
                &#xa;
                <mxCell id="1WRzfnLV6UOE_Qinn_VW-25" value="確認画面" style="rounded=0;whiteSpace=wrap;html=1;" parent="KEnhfVweKi8ohEG_Eb6k-1" vertex="1">
                    &#xa;
                    <mxGeometry x="700" y="260" width="110" height="60" as="geometry"/>
                    &#xa;
                </mxCell>
                &#xa;
                <mxCell id="1WRzfnLV6UOE_Qinn_VW-26" value="" style="endArrow=classic;html=1;exitX=1;exitY=0.5;exitDx=0;exitDy=0;" parent="KEnhfVweKi8ohEG_Eb6k-1" edge="1">
                    &#xa;
                    <mxGeometry width="50" height="50" relative="1" as="geometry">
                        &#xa;
                        <mxPoint x="370" y="50" as="sourcePoint"/>
                        &#xa;
                        <mxPoint x="479.9999999999998" y="50" as="targetPoint"/>
                        &#xa;
                    </mxGeometry>
                    &#xa;
                </mxCell>
                &#xa;
                <mxCell id="1WRzfnLV6UOE_Qinn_VW-27" value="確認画面" style="rounded=0;whiteSpace=wrap;html=1;" parent="KEnhfVweKi8ohEG_Eb6k-1" vertex="1">
                    &#xa;
                    <mxGeometry x="700" y="20" width="110" height="60" as="geometry"/>
                    &#xa;
                </mxCell>
                &#xa;
                <mxCell id="1WRzfnLV6UOE_Qinn_VW-28" value="" style="endArrow=classic;html=1;entryX=1.005;entryY=0.287;entryDx=0;entryDy=0;entryPerimeter=0;" parent="KEnhfVweKi8ohEG_Eb6k-1" edge="1">
                    &#xa;
                    <mxGeometry width="50" height="50" relative="1" as="geometry">
                        &#xa;
                        <mxPoint x="759.45" y="230" as="sourcePoint"/>
                        &#xa;
                        <mxPoint x="370" y="230.36000000000013" as="targetPoint"/>
                        &#xa;
                    </mxGeometry>
                    &#xa;
                </mxCell>
                &#xa;
                <mxCell id="1WRzfnLV6UOE_Qinn_VW-29" value="" style="endArrow=classic;html=1;exitX=1;exitY=0.5;exitDx=0;exitDy=0;" parent="KEnhfVweKi8ohEG_Eb6k-1" edge="1">
                    &#xa;
                    <mxGeometry width="50" height="50" relative="1" as="geometry">
                        &#xa;
                        <mxPoint x="370" y="289.4100000000003" as="sourcePoint"/>
                        &#xa;
                        <mxPoint x="479.9999999999998" y="289.4100000000003" as="targetPoint"/>
                        &#xa;
                    </mxGeometry>
                    &#xa;
                </mxCell>
                &#xa;
                <mxCell id="1WRzfnLV6UOE_Qinn_VW-30" value="" style="endArrow=none;html=1;" parent="KEnhfVweKi8ohEG_Eb6k-1" edge="1">
                    &#xa;
                    <mxGeometry width="50" height="50" relative="1" as="geometry">
                        &#xa;
                        <mxPoint x="760" y="350" as="sourcePoint"/>
                        &#xa;
                        <mxPoint x="760.24" y="320" as="targetPoint"/>
                        &#xa;
                        <Array as="points">
                            &#xa;
                            <mxPoint x="760" y="330"/>
                            &#xa;
                        </Array>
                        &#xa;
                    </mxGeometry>
                    &#xa;
                </mxCell>
                &#xa;
                <mxCell id="1WRzfnLV6UOE_Qinn_VW-31" value="削除確定" style="text;html=1;strokeColor=none;fillColor=none;align=center;verticalAlign=middle;whiteSpace=wrap;rounded=0;" parent="KEnhfVweKi8ohEG_Eb6k-1" vertex="1">
                    &#xa;
                    <mxGeometry x="585" y="330" width="50" height="20" as="geometry"/>
                    &#xa;
                </mxCell>
                &#xa;
                <mxCell id="1WRzfnLV6UOE_Qinn_VW-32" value="" style="endArrow=classic;html=1;entryX=1.005;entryY=0.287;entryDx=0;entryDy=0;entryPerimeter=0;" parent="KEnhfVweKi8ohEG_Eb6k-1" edge="1">
                    &#xa;
                    <mxGeometry width="50" height="50" relative="1" as="geometry">
                        &#xa;
                        <mxPoint x="759.45" y="350" as="sourcePoint"/>
                        &#xa;
                        <mxPoint x="370" y="350.3600000000001" as="targetPoint"/>
                        &#xa;
                    </mxGeometry>
                    &#xa;
                </mxCell>
                &#xa;
                <mxCell id="1WRzfnLV6UOE_Qinn_VW-33" value="" style="endArrow=classic;html=1;exitX=0.5;exitY=0;exitDx=0;exitDy=0;entryX=0.5;entryY=1;entryDx=0;entryDy=0;" parent="KEnhfVweKi8ohEG_Eb6k-1" source="THwuaI0fnQ7KmIa5b59G-0" target="1WRzfnLV6UOE_Qinn_VW-5" edge="1">
                    &#xa;
                    <mxGeometry width="50" height="50" relative="1" as="geometry">
                        &#xa;
                        <mxPoint x="300" y="458.82" as="sourcePoint"/>
                        &#xa;
                        <mxPoint x="409.9999999999998" y="458.82" as="targetPoint"/>
                        &#xa;
                    </mxGeometry>
                    &#xa;
                </mxCell>
                &#xa;
                <mxCell id="1WRzfnLV6UOE_Qinn_VW-34" value="会員（ユーザ）一覧" style="text;html=1;strokeColor=none;fillColor=none;align=center;verticalAlign=middle;whiteSpace=wrap;rounded=0;" parent="KEnhfVweKi8ohEG_Eb6k-1" vertex="1">
                    &#xa;
                    <mxGeometry x="320" y="420" width="120" height="20" as="geometry"/>
                    &#xa;
                </mxCell>
                &#xa;
                <mxCell id="mMIHAM_opMdtAHubqfZT-0" value="" style="endArrow=classic;html=1;entryX=0.003;entryY=0.617;entryDx=0;entryDy=0;entryPerimeter=0;" parent="KEnhfVweKi8ohEG_Eb6k-1" target="mMIHAM_opMdtAHubqfZT-5" edge="1">
                    &#xa;
                    <mxGeometry width="50" height="50" relative="1" as="geometry">
                        &#xa;
                        <mxPoint x="354" y="1007" as="sourcePoint"/>
                        &#xa;
                        <mxPoint x="354" y="980" as="targetPoint"/>
                        &#xa;
                    </mxGeometry>
                    &#xa;
                </mxCell>
                &#xa;
                <mxCell id="mMIHAM_opMdtAHubqfZT-1" value="支払情報" style="text;html=1;strokeColor=none;fillColor=none;align=center;verticalAlign=middle;whiteSpace=wrap;rounded=0;" parent="KEnhfVweKi8ohEG_Eb6k-1" vertex="1">
                    &#xa;
                    <mxGeometry x="376" y="980" width="80" height="20" as="geometry"/>
                    &#xa;
                </mxCell>
                &#xa;
                <mxCell id="mMIHAM_opMdtAHubqfZT-3" value="" style="endArrow=classic;html=1;exitX=-0.011;exitY=0.821;exitDx=0;exitDy=0;exitPerimeter=0;" parent="KEnhfVweKi8ohEG_Eb6k-1" edge="1">
                    &#xa;
                    <mxGeometry width="50" height="50" relative="1" as="geometry">
                        &#xa;
                        <mxPoint x="258.78999999999996" y="717.06" as="sourcePoint"/>
                        &#xa;
                        <mxPoint x="150" y="717.5" as="targetPoint"/>
                        &#xa;
                    </mxGeometry>
                    &#xa;
                </mxCell>
                &#xa;
                <mxCell id="mMIHAM_opMdtAHubqfZT-4" value="ログアウト" style="rounded=0;whiteSpace=wrap;html=1;" parent="KEnhfVweKi8ohEG_Eb6k-1" vertex="1">
                    &#xa;
                    <mxGeometry x="40" y="688.5" width="110" height="60" as="geometry"/>
                    &#xa;
                </mxCell>
                &#xa;
                <mxCell id="mMIHAM_opMdtAHubqfZT-5" value="支払・発送状況の一覧表示&lt;br&gt;未払い・支払い済みフィルター&lt;br&gt;ユーザフィルター" style="rounded=0;whiteSpace=wrap;html=1;" parent="KEnhfVweKi8ohEG_Eb6k-1" vertex="1">
                    &#xa;
                    <mxGeometry x="476" y="958" width="110" height="80" as="geometry"/>
                    &#xa;
                </mxCell>
                &#xa;
                <mxCell id="mMIHAM_opMdtAHubqfZT-8" value="" style="endArrow=none;html=1;exitX=0.75;exitY=1;exitDx=0;exitDy=0;" parent="KEnhfVweKi8ohEG_Eb6k-1" edge="1">
                    &#xa;
                    <mxGeometry width="50" height="50" relative="1" as="geometry">
                        &#xa;
                        <mxPoint x="352.5" y="920" as="sourcePoint"/>
                        &#xa;
                        <mxPoint x="353" y="1010" as="targetPoint"/>
                        &#xa;
                    </mxGeometry>
                    &#xa;
                </mxCell>
                &#xa;
                <mxCell id="mMIHAM_opMdtAHubqfZT-9" value="" style="endArrow=none;html=1;exitX=0.75;exitY=1;exitDx=0;exitDy=0;" parent="KEnhfVweKi8ohEG_Eb6k-1" edge="1">
                    &#xa;
                    <mxGeometry width="50" height="50" relative="1" as="geometry">
                        &#xa;
                        <mxPoint x="318.9999999999999" y="920" as="sourcePoint"/>
                        &#xa;
                        <mxPoint x="320" y="1140" as="targetPoint"/>
                        &#xa;
                    </mxGeometry>
                    &#xa;
                </mxCell>
                &#xa;
                <mxCell id="mMIHAM_opMdtAHubqfZT-10" value="" style="endArrow=classic;html=1;" parent="KEnhfVweKi8ohEG_Eb6k-1" edge="1">
                    &#xa;
                    <mxGeometry width="50" height="50" relative="1" as="geometry">
                        &#xa;
                        <mxPoint x="320" y="1140" as="sourcePoint"/>
                        &#xa;
                        <mxPoint x="490" y="1140" as="targetPoint"/>
                        &#xa;
                    </mxGeometry>
                    &#xa;
                </mxCell>
                &#xa;
                <mxCell id="mMIHAM_opMdtAHubqfZT-11" value="お問い合わせ情報" style="text;html=1;strokeColor=none;fillColor=none;align=center;verticalAlign=middle;whiteSpace=wrap;rounded=0;" parent="KEnhfVweKi8ohEG_Eb6k-1" vertex="1">
                    &#xa;
                    <mxGeometry x="340" y="1120" width="100" height="20" as="geometry"/>
                    &#xa;
                </mxCell>
                &#xa;
                <mxCell id="mMIHAM_opMdtAHubqfZT-13" value="一覧情報" style="rounded=0;whiteSpace=wrap;html=1;" parent="KEnhfVweKi8ohEG_Eb6k-1" vertex="1">
                    &#xa;
                    <mxGeometry x="490" y="1110" width="110" height="60" as="geometry"/>
                    &#xa;
                </mxCell>
                &#xa;
                <mxCell id="mMIHAM_opMdtAHubqfZT-14" value="返信ページ&lt;br&gt;メールとユーザのログイン状態のお知らせ" style="rounded=0;whiteSpace=wrap;html=1;" parent="KEnhfVweKi8ohEG_Eb6k-1" vertex="1">
                    &#xa;
                    <mxGeometry x="720" y="1110" width="110" height="60" as="geometry"/>
                    &#xa;
                </mxCell>
                &#xa;
                <mxCell id="mMIHAM_opMdtAHubqfZT-15" value="" style="endArrow=classic;html=1;entryX=0.003;entryY=0.617;entryDx=0;entryDy=0;entryPerimeter=0;" parent="KEnhfVweKi8ohEG_Eb6k-1" edge="1">
                    &#xa;
                    <mxGeometry width="50" height="50" relative="1" as="geometry">
                        &#xa;
                        <mxPoint x="600.0000000000001" y="1140" as="sourcePoint"/>
                        &#xa;
                        <mxPoint x="722.3299999999999" y="1140.36" as="targetPoint"/>
                        &#xa;
                    </mxGeometry>
                    &#xa;
                </mxCell>
                &#xa;
                <mxCell id="mMIHAM_opMdtAHubqfZT-16" value="詳細を選択" style="text;html=1;strokeColor=none;fillColor=none;align=center;verticalAlign=middle;whiteSpace=wrap;rounded=0;" parent="KEnhfVweKi8ohEG_Eb6k-1" vertex="1">
                    &#xa;
                    <mxGeometry x="610" y="1120" width="100" height="20" as="geometry"/>
                    &#xa;
                </mxCell>
                &#xa;
                <mxCell id="ALQJsZpnd5oBylp9_A0q-0" value="レビュー一覧&lt;br&gt;表示・非表示設定できる" style="rounded=0;whiteSpace=wrap;html=1;" parent="KEnhfVweKi8ohEG_Eb6k-1" vertex="1">
                    &#xa;
                    <mxGeometry x="480" y="831" width="110" height="60" as="geometry"/>
                    &#xa;
                </mxCell>
                &#xa;
                <mxCell id="ALQJsZpnd5oBylp9_A0q-3" value="商品に対するレビュー一覧" style="text;html=1;strokeColor=none;fillColor=none;align=center;verticalAlign=middle;whiteSpace=wrap;rounded=0;" parent="KEnhfVweKi8ohEG_Eb6k-1" vertex="1">
                    &#xa;
                    <mxGeometry x="380" y="831" width="80" height="20" as="geometry"/>
                    &#xa;
                </mxCell>
                &#xa;
                <mxCell id="ALQJsZpnd5oBylp9_A0q-5" value="" style="endArrow=classic;html=1;exitX=1;exitY=0.5;exitDx=0;exitDy=0;" parent="KEnhfVweKi8ohEG_Eb6k-1" edge="1">
                    &#xa;
                    <mxGeometry width="50" height="50" relative="1" as="geometry">
                        &#xa;
                        <mxPoint x="370" y="860.4100000000003" as="sourcePoint"/>
                        &#xa;
                        <mxPoint x="479.9999999999998" y="860.4100000000003" as="targetPoint"/>
                        &#xa;
                    </mxGeometry>
                    &#xa;
                </mxCell>
                &#xa;
                <mxCell id="ALQJsZpnd5oBylp9_A0q-9" value="" style="endArrow=classic;html=1;exitX=1;exitY=0.5;exitDx=0;exitDy=0;" parent="KEnhfVweKi8ohEG_Eb6k-1" edge="1">
                    &#xa;
                    <mxGeometry width="50" height="50" relative="1" as="geometry">
                        &#xa;
                        <mxPoint x="830" y="1139.4099999999999" as="sourcePoint"/>
                        &#xa;
                        <mxPoint x="939.9999999999998" y="1139.4099999999999" as="targetPoint"/>
                        &#xa;
                    </mxGeometry>
                    &#xa;
                </mxCell>
                &#xa;
                <mxCell id="ALQJsZpnd5oBylp9_A0q-10" value="返信する" style="text;html=1;strokeColor=none;fillColor=none;align=center;verticalAlign=middle;whiteSpace=wrap;rounded=0;" parent="KEnhfVweKi8ohEG_Eb6k-1" vertex="1">
                    &#xa;
                    <mxGeometry x="840" y="1110" width="80" height="20" as="geometry"/>
                    &#xa;
                </mxCell>
                &#xa;
                <mxCell id="ALQJsZpnd5oBylp9_A0q-11" value="確認画面" style="rounded=0;whiteSpace=wrap;html=1;" parent="KEnhfVweKi8ohEG_Eb6k-1" vertex="1">
                    &#xa;
                    <mxGeometry x="940" y="1110" width="110" height="60" as="geometry"/>
                    &#xa;
                </mxCell>
                &#xa;
                <mxCell id="ALQJsZpnd5oBylp9_A0q-12" value="" style="endArrow=classic;html=1;entryX=0.5;entryY=1;entryDx=0;entryDy=0;" parent="KEnhfVweKi8ohEG_Eb6k-1" target="mMIHAM_opMdtAHubqfZT-13" edge="1">
                    &#xa;
                    <mxGeometry width="50" height="50" relative="1" as="geometry">
                        &#xa;
                        <mxPoint x="545" y="1240" as="sourcePoint"/>
                        &#xa;
                        <mxPoint x="620" y="990" as="targetPoint"/>
                        &#xa;
                    </mxGeometry>
                    &#xa;
                </mxCell>
                &#xa;
                <mxCell id="ALQJsZpnd5oBylp9_A0q-13" value="" style="endArrow=none;html=1;" parent="KEnhfVweKi8ohEG_Eb6k-1" edge="1">
                    &#xa;
                    <mxGeometry width="50" height="50" relative="1" as="geometry">
                        &#xa;
                        <mxPoint x="544" y="1240" as="sourcePoint"/>
                        &#xa;
                        <mxPoint x="1000" y="1240" as="targetPoint"/>
                        &#xa;
                    </mxGeometry>
                    &#xa;
                </mxCell>
                &#xa;
                <mxCell id="ALQJsZpnd5oBylp9_A0q-14" value="" style="endArrow=none;html=1;entryX=0.5;entryY=1;entryDx=0;entryDy=0;" parent="KEnhfVweKi8ohEG_Eb6k-1" edge="1">
                    &#xa;
                    <mxGeometry width="50" height="50" relative="1" as="geometry">
                        &#xa;
                        <mxPoint x="999" y="1240" as="sourcePoint"/>
                        &#xa;
                        <mxPoint x="999" y="1170" as="targetPoint"/>
                        &#xa;
                    </mxGeometry>
                    &#xa;
                </mxCell>
                &#xa;
                <mxCell id="am7SWN3ICT2tUq1gQFji-0" value="" style="endArrow=none;html=1;exitX=0.75;exitY=1;exitDx=0;exitDy=0;" parent="KEnhfVweKi8ohEG_Eb6k-1" edge="1">
                    &#xa;
                    <mxGeometry width="50" height="50" relative="1" as="geometry">
                        &#xa;
                        <mxPoint x="280" y="920" as="sourcePoint"/>
                        &#xa;
                        <mxPoint x="280" y="1320" as="targetPoint"/>
                        &#xa;
                    </mxGeometry>
                    &#xa;
                </mxCell>
                &#xa;
                <mxCell id="am7SWN3ICT2tUq1gQFji-1" value="会員（新規登録）一覧&lt;br&gt;検索機能&lt;br&gt;CSVダウンロード機能" style="rounded=0;whiteSpace=wrap;html=1;" parent="KEnhfVweKi8ohEG_Eb6k-1" vertex="1">
                    &#xa;
                    <mxGeometry x="240" y="1320" width="110" height="360" as="geometry"/>
                    &#xa;
                </mxCell>
                &#xa;
                <mxCell id="am7SWN3ICT2tUq1gQFji-2" value="" style="endArrow=classic;html=1;exitX=1;exitY=0.5;exitDx=0;exitDy=0;" parent="KEnhfVweKi8ohEG_Eb6k-1" edge="1">
                    &#xa;
                    <mxGeometry width="50" height="50" relative="1" as="geometry">
                        &#xa;
                        <mxPoint x="350" y="1469.4099999999996" as="sourcePoint"/>
                        &#xa;
                        <mxPoint x="460" y="1469.4099999999996" as="targetPoint"/>
                        &#xa;
                    </mxGeometry>
                    &#xa;
                </mxCell>
                &#xa;
                <mxCell id="am7SWN3ICT2tUq1gQFji-3" value="選択した会員の詳細情報" style="rounded=0;whiteSpace=wrap;html=1;" parent="KEnhfVweKi8ohEG_Eb6k-1" vertex="1">
                    &#xa;
                    <mxGeometry x="460" y="1440" width="110" height="60" as="geometry"/>
                    &#xa;
                </mxCell>
                &#xa;
                <mxCell id="am7SWN3ICT2tUq1gQFji-4" value="会員を選択して「編集」" style="text;html=1;strokeColor=none;fillColor=none;align=center;verticalAlign=middle;whiteSpace=wrap;rounded=0;" parent="KEnhfVweKi8ohEG_Eb6k-1" vertex="1">
                    &#xa;
                    <mxGeometry x="370" y="1440" width="80" height="20" as="geometry"/>
                    &#xa;
                </mxCell>
                &#xa;
                <mxCell id="am7SWN3ICT2tUq1gQFji-5" value="確認画面" style="rounded=0;whiteSpace=wrap;html=1;" parent="KEnhfVweKi8ohEG_Eb6k-1" vertex="1">
                    &#xa;
                    <mxGeometry x="680" y="1440" width="110" height="60" as="geometry"/>
                    &#xa;
                </mxCell>
                &#xa;
                <mxCell id="am7SWN3ICT2tUq1gQFji-6" value="" style="endArrow=classic;html=1;exitX=1;exitY=0.5;exitDx=0;exitDy=0;" parent="KEnhfVweKi8ohEG_Eb6k-1" edge="1">
                    &#xa;
                    <mxGeometry width="50" height="50" relative="1" as="geometry">
                        &#xa;
                        <mxPoint x="570" y="1468.9999999999998" as="sourcePoint"/>
                        &#xa;
                        <mxPoint x="680" y="1468.9999999999998" as="targetPoint"/>
                        &#xa;
                    </mxGeometry>
                    &#xa;
                </mxCell>
                &#xa;
                <mxCell id="am7SWN3ICT2tUq1gQFji-7" value="編集する" style="text;html=1;strokeColor=none;fillColor=none;align=center;verticalAlign=middle;whiteSpace=wrap;rounded=0;" parent="KEnhfVweKi8ohEG_Eb6k-1" vertex="1">
                    &#xa;
                    <mxGeometry x="600" y="1440" width="50" height="20" as="geometry"/>
                    &#xa;
                </mxCell>
                &#xa;
                <mxCell id="am7SWN3ICT2tUq1gQFji-8" value="" style="endArrow=none;html=1;" parent="KEnhfVweKi8ohEG_Eb6k-1" edge="1">
                    &#xa;
                    <mxGeometry width="50" height="50" relative="1" as="geometry">
                        &#xa;
                        <mxPoint x="740" y="1530" as="sourcePoint"/>
                        &#xa;
                        <mxPoint x="740.2399999999998" y="1500" as="targetPoint"/>
                        &#xa;
                        <Array as="points">
                            &#xa;
                            <mxPoint x="740" y="1510"/>
                            &#xa;
                        </Array>
                        &#xa;
                    </mxGeometry>
                    &#xa;
                </mxCell>
                &#xa;
                <mxCell id="am7SWN3ICT2tUq1gQFji-9" value="編集確定" style="text;html=1;strokeColor=none;fillColor=none;align=center;verticalAlign=middle;whiteSpace=wrap;rounded=0;" parent="KEnhfVweKi8ohEG_Eb6k-1" vertex="1">
                    &#xa;
                    <mxGeometry x="565" y="1510" width="50" height="20" as="geometry"/>
                    &#xa;
                </mxCell>
                &#xa;
                <mxCell id="am7SWN3ICT2tUq1gQFji-10" value="選択した会員の詳細情報" style="rounded=0;whiteSpace=wrap;html=1;" parent="KEnhfVweKi8ohEG_Eb6k-1" vertex="1">
                    &#xa;
                    <mxGeometry x="460" y="1560" width="110" height="60" as="geometry"/>
                    &#xa;
                </mxCell>
                &#xa;
                <mxCell id="am7SWN3ICT2tUq1gQFji-11" value="" style="endArrow=classic;html=1;exitX=1;exitY=0.5;exitDx=0;exitDy=0;" parent="KEnhfVweKi8ohEG_Eb6k-1" edge="1">
                    &#xa;
                    <mxGeometry width="50" height="50" relative="1" as="geometry">
                        &#xa;
                        <mxPoint x="570" y="1589.4099999999996" as="sourcePoint"/>
                        &#xa;
                        <mxPoint x="680" y="1589.4099999999996" as="targetPoint"/>
                        &#xa;
                    </mxGeometry>
                    &#xa;
                </mxCell>
                &#xa;
                <mxCell id="am7SWN3ICT2tUq1gQFji-12" value="削除する" style="text;html=1;strokeColor=none;fillColor=none;align=center;verticalAlign=middle;whiteSpace=wrap;rounded=0;" parent="KEnhfVweKi8ohEG_Eb6k-1" vertex="1">
                    &#xa;
                    <mxGeometry x="580" y="1560" width="80" height="20" as="geometry"/>
                    &#xa;
                </mxCell>
                &#xa;
                <mxCell id="am7SWN3ICT2tUq1gQFji-13" value="会員を選択して「削除」" style="text;html=1;strokeColor=none;fillColor=none;align=center;verticalAlign=middle;whiteSpace=wrap;rounded=0;" parent="KEnhfVweKi8ohEG_Eb6k-1" vertex="1">
                    &#xa;
                    <mxGeometry x="360" y="1560" width="80" height="20" as="geometry"/>
                    &#xa;
                </mxCell>
                &#xa;
                <mxCell id="am7SWN3ICT2tUq1gQFji-14" value="新規会員情報の入力" style="rounded=0;whiteSpace=wrap;html=1;" parent="KEnhfVweKi8ohEG_Eb6k-1" vertex="1">
                    &#xa;
                    <mxGeometry x="460" y="1320" width="110" height="60" as="geometry"/>
                    &#xa;
                </mxCell>
                &#xa;
                <mxCell id="am7SWN3ICT2tUq1gQFji-15" value="新規登録" style="text;html=1;strokeColor=none;fillColor=none;align=center;verticalAlign=middle;whiteSpace=wrap;rounded=0;" parent="KEnhfVweKi8ohEG_Eb6k-1" vertex="1">
                    &#xa;
                    <mxGeometry x="369" y="1320" width="80" height="20" as="geometry"/>
                    &#xa;
                </mxCell>
                &#xa;
                <mxCell id="am7SWN3ICT2tUq1gQFji-16" value="" style="endArrow=classic;html=1;exitX=1;exitY=0.5;exitDx=0;exitDy=0;" parent="KEnhfVweKi8ohEG_Eb6k-1" edge="1">
                    &#xa;
                    <mxGeometry width="50" height="50" relative="1" as="geometry">
                        &#xa;
                        <mxPoint x="570" y="1349.4099999999996" as="sourcePoint"/>
                        &#xa;
                        <mxPoint x="680" y="1349.4099999999996" as="targetPoint"/>
                        &#xa;
                    </mxGeometry>
                    &#xa;
                </mxCell>
                &#xa;
                <mxCell id="am7SWN3ICT2tUq1gQFji-17" value="登録する" style="text;html=1;strokeColor=none;fillColor=none;align=center;verticalAlign=middle;whiteSpace=wrap;rounded=0;" parent="KEnhfVweKi8ohEG_Eb6k-1" vertex="1">
                    &#xa;
                    <mxGeometry x="590" y="1320" width="60" height="20" as="geometry"/>
                    &#xa;
                </mxCell>
                &#xa;
                <mxCell id="am7SWN3ICT2tUq1gQFji-18" value="" style="endArrow=classic;html=1;" parent="KEnhfVweKi8ohEG_Eb6k-1" edge="1">
                    &#xa;
                    <mxGeometry width="50" height="50" relative="1" as="geometry">
                        &#xa;
                        <mxPoint x="740" y="1410" as="sourcePoint"/>
                        &#xa;
                        <mxPoint x="351" y="1410" as="targetPoint"/>
                        &#xa;
                    </mxGeometry>
                    &#xa;
                </mxCell>
                &#xa;
                <mxCell id="am7SWN3ICT2tUq1gQFji-19" value="" style="endArrow=none;html=1;" parent="KEnhfVweKi8ohEG_Eb6k-1" edge="1">
                    &#xa;
                    <mxGeometry width="50" height="50" relative="1" as="geometry">
                        &#xa;
                        <mxPoint x="740" y="1410" as="sourcePoint"/>
                        &#xa;
                        <mxPoint x="740.4099999999999" y="1370" as="targetPoint"/>
                        &#xa;
                    </mxGeometry>
                    &#xa;
                </mxCell>
                &#xa;
                <mxCell id="am7SWN3ICT2tUq1gQFji-20" value="登録確定" style="text;html=1;strokeColor=none;fillColor=none;align=center;verticalAlign=middle;whiteSpace=wrap;rounded=0;" parent="KEnhfVweKi8ohEG_Eb6k-1" vertex="1">
                    &#xa;
                    <mxGeometry x="560" y="1390" width="60" height="20" as="geometry"/>
                    &#xa;
                </mxCell>
                &#xa;
                <mxCell id="am7SWN3ICT2tUq1gQFji-21" value="確認画面" style="rounded=0;whiteSpace=wrap;html=1;" parent="KEnhfVweKi8ohEG_Eb6k-1" vertex="1">
                    &#xa;
                    <mxGeometry x="680" y="1560" width="110" height="60" as="geometry"/>
                    &#xa;
                </mxCell>
                &#xa;
                <mxCell id="am7SWN3ICT2tUq1gQFji-22" value="" style="endArrow=classic;html=1;exitX=1;exitY=0.5;exitDx=0;exitDy=0;" parent="KEnhfVweKi8ohEG_Eb6k-1" edge="1">
                    &#xa;
                    <mxGeometry width="50" height="50" relative="1" as="geometry">
                        &#xa;
                        <mxPoint x="350" y="1350" as="sourcePoint"/>
                        &#xa;
                        <mxPoint x="460" y="1350" as="targetPoint"/>
                        &#xa;
                    </mxGeometry>
                    &#xa;
                </mxCell>
                &#xa;
                <mxCell id="am7SWN3ICT2tUq1gQFji-23" value="確認画面" style="rounded=0;whiteSpace=wrap;html=1;" parent="KEnhfVweKi8ohEG_Eb6k-1" vertex="1">
                    &#xa;
                    <mxGeometry x="680" y="1320" width="110" height="60" as="geometry"/>
                    &#xa;
                </mxCell>
                &#xa;
                <mxCell id="am7SWN3ICT2tUq1gQFji-24" value="" style="endArrow=classic;html=1;entryX=1.005;entryY=0.287;entryDx=0;entryDy=0;entryPerimeter=0;" parent="KEnhfVweKi8ohEG_Eb6k-1" edge="1">
                    &#xa;
                    <mxGeometry width="50" height="50" relative="1" as="geometry">
                        &#xa;
                        <mxPoint x="739.4499999999998" y="1530" as="sourcePoint"/>
                        &#xa;
                        <mxPoint x="350" y="1530.36" as="targetPoint"/>
                        &#xa;
                    </mxGeometry>
                    &#xa;
                </mxCell>
                &#xa;
                <mxCell id="am7SWN3ICT2tUq1gQFji-25" value="" style="endArrow=classic;html=1;exitX=1;exitY=0.5;exitDx=0;exitDy=0;" parent="KEnhfVweKi8ohEG_Eb6k-1" edge="1">
                    &#xa;
                    <mxGeometry width="50" height="50" relative="1" as="geometry">
                        &#xa;
                        <mxPoint x="350" y="1589.4100000000003" as="sourcePoint"/>
                        &#xa;
                        <mxPoint x="460" y="1589.4100000000003" as="targetPoint"/>
                        &#xa;
                    </mxGeometry>
                    &#xa;
                </mxCell>
                &#xa;
                <mxCell id="am7SWN3ICT2tUq1gQFji-26" value="" style="endArrow=none;html=1;" parent="KEnhfVweKi8ohEG_Eb6k-1" edge="1">
                    &#xa;
                    <mxGeometry width="50" height="50" relative="1" as="geometry">
                        &#xa;
                        <mxPoint x="740" y="1650" as="sourcePoint"/>
                        &#xa;
                        <mxPoint x="740.2399999999998" y="1620" as="targetPoint"/>
                        &#xa;
                        <Array as="points">
                            &#xa;
                            <mxPoint x="740" y="1630"/>
                            &#xa;
                        </Array>
                        &#xa;
                    </mxGeometry>
                    &#xa;
                </mxCell>
                &#xa;
                <mxCell id="am7SWN3ICT2tUq1gQFji-27" value="削除確定" style="text;html=1;strokeColor=none;fillColor=none;align=center;verticalAlign=middle;whiteSpace=wrap;rounded=0;" parent="KEnhfVweKi8ohEG_Eb6k-1" vertex="1">
                    &#xa;
                    <mxGeometry x="565" y="1630" width="50" height="20" as="geometry"/>
                    &#xa;
                </mxCell>
                &#xa;
                <mxCell id="am7SWN3ICT2tUq1gQFji-28" value="" style="endArrow=classic;html=1;entryX=1.005;entryY=0.287;entryDx=0;entryDy=0;entryPerimeter=0;" parent="KEnhfVweKi8ohEG_Eb6k-1" edge="1">
                    &#xa;
                    <mxGeometry width="50" height="50" relative="1" as="geometry">
                        &#xa;
                        <mxPoint x="739.4499999999998" y="1650" as="sourcePoint"/>
                        &#xa;
                        <mxPoint x="350" y="1650.36" as="targetPoint"/>
                        &#xa;
                    </mxGeometry>
                    &#xa;
                </mxCell>
                &#xa;
                <mxCell id="am7SWN3ICT2tUq1gQFji-29" value="会員（管理者）一覧" style="text;html=1;strokeColor=none;fillColor=none;align=center;verticalAlign=middle;whiteSpace=wrap;rounded=0;" parent="KEnhfVweKi8ohEG_Eb6k-1" vertex="1">
                    &#xa;
                    <mxGeometry x="290" y="1280" width="120" height="20" as="geometry"/>
                    &#xa;
                </mxCell>
                &#xa;
                <mxCell id="am7SWN3ICT2tUq1gQFji-30" value="返信確定" style="text;html=1;strokeColor=none;fillColor=none;align=center;verticalAlign=middle;whiteSpace=wrap;rounded=0;" parent="KEnhfVweKi8ohEG_Eb6k-1" vertex="1">
                    &#xa;
                    <mxGeometry x="740" y="1210" width="80" height="20" as="geometry"/>
                    &#xa;
                </mxCell>
                &#xa;
            </root>
            &#xa;
        </mxGraphModel>
        &#xa;
    </diagram>
    <diagram id="J-vj7s9mgWaaWtMs8sw-" name="ER図">
        <mxGraphModel dx="898" dy="635" grid="0" gridSize="10" guides="1" tooltips="1" connect="1" arrows="1" fold="1" page="1" pageScale="1" pageWidth="3300" pageHeight="4681" math="0" shadow="0">
            <root>
                <mxCell id="G9c_-nv2ug_jjYlDR7pB-0"/>
                <mxCell id="G9c_-nv2ug_jjYlDR7pB-1" parent="G9c_-nv2ug_jjYlDR7pB-0"/>
                <mxCell id="4j1TrCdyYsuOTc-Rs-Ak-10" value="会員（管理者,adminuser）" style="swimlane;fontStyle=0;childLayout=stackLayout;horizontal=1;startSize=26;fillColor=none;horizontalStack=0;resizeParent=1;resizeParentMax=0;resizeLast=0;collapsible=1;marginBottom=0;" parent="G9c_-nv2ug_jjYlDR7pB-1" vertex="1">
                    <mxGeometry x="60" y="40" width="140" height="156" as="geometry">
                        <mxRectangle x="110" y="50" width="120" height="26" as="alternateBounds"/>
                    </mxGeometry>
                </mxCell>
                <mxCell id="4j1TrCdyYsuOTc-Rs-Ak-11" value="ID" style="text;strokeColor=none;fillColor=none;align=left;verticalAlign=top;spacingLeft=4;spacingRight=4;overflow=hidden;rotatable=0;points=[[0,0.5],[1,0.5]];portConstraint=eastwest;" parent="4j1TrCdyYsuOTc-Rs-Ak-10" vertex="1">
                    <mxGeometry y="26" width="140" height="26" as="geometry"/>
                </mxCell>
                <mxCell id="4j1TrCdyYsuOTc-Rs-Ak-12" value="メールアドレス" style="text;strokeColor=none;fillColor=none;align=left;verticalAlign=top;spacingLeft=4;spacingRight=4;overflow=hidden;rotatable=0;points=[[0,0.5],[1,0.5]];portConstraint=eastwest;" parent="4j1TrCdyYsuOTc-Rs-Ak-10" vertex="1">
                    <mxGeometry y="52" width="140" height="26" as="geometry"/>
                </mxCell>
                <mxCell id="4j1TrCdyYsuOTc-Rs-Ak-13" value="パスワード&#10;" style="text;strokeColor=none;fillColor=none;align=left;verticalAlign=top;spacingLeft=4;spacingRight=4;overflow=hidden;rotatable=0;points=[[0,0.5],[1,0.5]];portConstraint=eastwest;" parent="4j1TrCdyYsuOTc-Rs-Ak-10" vertex="1">
                    <mxGeometry y="78" width="140" height="26" as="geometry"/>
                </mxCell>
                <mxCell id="4j1TrCdyYsuOTc-Rs-Ak-16" value="登録日&#10;" style="text;strokeColor=none;fillColor=none;align=left;verticalAlign=top;spacingLeft=4;spacingRight=4;overflow=hidden;rotatable=0;points=[[0,0.5],[1,0.5]];portConstraint=eastwest;" parent="4j1TrCdyYsuOTc-Rs-Ak-10" vertex="1">
                    <mxGeometry y="104" width="140" height="26" as="geometry"/>
                </mxCell>
                <mxCell id="4j1TrCdyYsuOTc-Rs-Ak-17" value="更新日&#10;" style="text;strokeColor=none;fillColor=none;align=left;verticalAlign=top;spacingLeft=4;spacingRight=4;overflow=hidden;rotatable=0;points=[[0,0.5],[1,0.5]];portConstraint=eastwest;" parent="4j1TrCdyYsuOTc-Rs-Ak-10" vertex="1">
                    <mxGeometry y="130" width="140" height="26" as="geometry"/>
                </mxCell>
                <mxCell id="4j1TrCdyYsuOTc-Rs-Ak-18" value="会員（ユーザ）" style="swimlane;fontStyle=0;childLayout=stackLayout;horizontal=1;startSize=26;fillColor=none;horizontalStack=0;resizeParent=1;resizeParentMax=0;resizeLast=0;collapsible=1;marginBottom=0;" parent="G9c_-nv2ug_jjYlDR7pB-1" vertex="1">
                    <mxGeometry x="360" y="160" width="140" height="260" as="geometry">
                        <mxRectangle x="110" y="50" width="120" height="26" as="alternateBounds"/>
                    </mxGeometry>
                </mxCell>
                <mxCell id="4j1TrCdyYsuOTc-Rs-Ak-19" value="ID" style="text;strokeColor=none;fillColor=none;align=left;verticalAlign=top;spacingLeft=4;spacingRight=4;overflow=hidden;rotatable=0;points=[[0,0.5],[1,0.5]];portConstraint=eastwest;" parent="4j1TrCdyYsuOTc-Rs-Ak-18" vertex="1">
                    <mxGeometry y="26" width="140" height="26" as="geometry"/>
                </mxCell>
                <mxCell id="kj5Q3REVyGP-gFm-ye7l-5" value="名前" style="text;strokeColor=none;fillColor=none;align=left;verticalAlign=top;spacingLeft=4;spacingRight=4;overflow=hidden;rotatable=0;points=[[0,0.5],[1,0.5]];portConstraint=eastwest;" parent="4j1TrCdyYsuOTc-Rs-Ak-18" vertex="1">
                    <mxGeometry y="52" width="140" height="26" as="geometry"/>
                </mxCell>
                <mxCell id="kj5Q3REVyGP-gFm-ye7l-4" value="住所" style="text;strokeColor=none;fillColor=none;align=left;verticalAlign=top;spacingLeft=4;spacingRight=4;overflow=hidden;rotatable=0;points=[[0,0.5],[1,0.5]];portConstraint=eastwest;" parent="4j1TrCdyYsuOTc-Rs-Ak-18" vertex="1">
                    <mxGeometry y="78" width="140" height="26" as="geometry"/>
                </mxCell>
                <mxCell id="kj5Q3REVyGP-gFm-ye7l-0" value="電話番号" style="text;strokeColor=none;fillColor=none;align=left;verticalAlign=top;spacingLeft=4;spacingRight=4;overflow=hidden;rotatable=0;points=[[0,0.5],[1,0.5]];portConstraint=eastwest;" parent="4j1TrCdyYsuOTc-Rs-Ak-18" vertex="1">
                    <mxGeometry y="104" width="140" height="26" as="geometry"/>
                </mxCell>
                <mxCell id="4j1TrCdyYsuOTc-Rs-Ak-20" value="メールアドレス" style="text;strokeColor=none;fillColor=none;align=left;verticalAlign=top;spacingLeft=4;spacingRight=4;overflow=hidden;rotatable=0;points=[[0,0.5],[1,0.5]];portConstraint=eastwest;" parent="4j1TrCdyYsuOTc-Rs-Ak-18" vertex="1">
                    <mxGeometry y="130" width="140" height="26" as="geometry"/>
                </mxCell>
                <mxCell id="4j1TrCdyYsuOTc-Rs-Ak-21" value="パスワード&#10;" style="text;strokeColor=none;fillColor=none;align=left;verticalAlign=top;spacingLeft=4;spacingRight=4;overflow=hidden;rotatable=0;points=[[0,0.5],[1,0.5]];portConstraint=eastwest;" parent="4j1TrCdyYsuOTc-Rs-Ak-18" vertex="1">
                    <mxGeometry y="156" width="140" height="26" as="geometry"/>
                </mxCell>
                <mxCell id="MuO-OoOfj3y4DTlMsyCC-4" value="支払情報" style="text;strokeColor=none;fillColor=none;align=left;verticalAlign=top;spacingLeft=4;spacingRight=4;overflow=hidden;rotatable=0;points=[[0,0.5],[1,0.5]];portConstraint=eastwest;" parent="4j1TrCdyYsuOTc-Rs-Ak-18" vertex="1">
                    <mxGeometry y="182" width="140" height="26" as="geometry"/>
                </mxCell>
                <mxCell id="4j1TrCdyYsuOTc-Rs-Ak-22" value="登録日&#10;" style="text;strokeColor=none;fillColor=none;align=left;verticalAlign=top;spacingLeft=4;spacingRight=4;overflow=hidden;rotatable=0;points=[[0,0.5],[1,0.5]];portConstraint=eastwest;" parent="4j1TrCdyYsuOTc-Rs-Ak-18" vertex="1">
                    <mxGeometry y="208" width="140" height="26" as="geometry"/>
                </mxCell>
                <mxCell id="4j1TrCdyYsuOTc-Rs-Ak-23" value="更新日&#10;" style="text;strokeColor=none;fillColor=none;align=left;verticalAlign=top;spacingLeft=4;spacingRight=4;overflow=hidden;rotatable=0;points=[[0,0.5],[1,0.5]];portConstraint=eastwest;" parent="4j1TrCdyYsuOTc-Rs-Ak-18" vertex="1">
                    <mxGeometry y="234" width="140" height="26" as="geometry"/>
                </mxCell>
                <mxCell id="kj5Q3REVyGP-gFm-ye7l-7" value="商品（goods)" style="swimlane;fontStyle=0;childLayout=stackLayout;horizontal=1;startSize=26;fillColor=none;horizontalStack=0;resizeParent=1;resizeParentMax=0;resizeLast=0;collapsible=1;marginBottom=0;" parent="G9c_-nv2ug_jjYlDR7pB-1" vertex="1">
                    <mxGeometry x="360" y="440" width="140" height="260" as="geometry">
                        <mxRectangle x="110" y="50" width="120" height="26" as="alternateBounds"/>
                    </mxGeometry>
                </mxCell>
                <mxCell id="kj5Q3REVyGP-gFm-ye7l-8" value="ID" style="text;strokeColor=none;fillColor=none;align=left;verticalAlign=top;spacingLeft=4;spacingRight=4;overflow=hidden;rotatable=0;points=[[0,0.5],[1,0.5]];portConstraint=eastwest;" parent="kj5Q3REVyGP-gFm-ye7l-7" vertex="1">
                    <mxGeometry y="26" width="140" height="26" as="geometry"/>
                </mxCell>
                <mxCell id="kj5Q3REVyGP-gFm-ye7l-10" value="価格" style="text;strokeColor=none;fillColor=none;align=left;verticalAlign=top;spacingLeft=4;spacingRight=4;overflow=hidden;rotatable=0;points=[[0,0.5],[1,0.5]];portConstraint=eastwest;" parent="kj5Q3REVyGP-gFm-ye7l-7" vertex="1">
                    <mxGeometry y="52" width="140" height="26" as="geometry"/>
                </mxCell>
                <mxCell id="kj5Q3REVyGP-gFm-ye7l-11" value="在庫" style="text;strokeColor=none;fillColor=none;align=left;verticalAlign=top;spacingLeft=4;spacingRight=4;overflow=hidden;rotatable=0;points=[[0,0.5],[1,0.5]];portConstraint=eastwest;" parent="kj5Q3REVyGP-gFm-ye7l-7" vertex="1">
                    <mxGeometry y="78" width="140" height="26" as="geometry"/>
                </mxCell>
                <mxCell id="7H-b4MGiNnx4I-hbdcFz-0" value="売上個数" style="text;strokeColor=none;fillColor=none;align=left;verticalAlign=top;spacingLeft=4;spacingRight=4;overflow=hidden;rotatable=0;points=[[0,0.5],[1,0.5]];portConstraint=eastwest;" parent="kj5Q3REVyGP-gFm-ye7l-7" vertex="1">
                    <mxGeometry y="104" width="140" height="26" as="geometry"/>
                </mxCell>
                <mxCell id="kj5Q3REVyGP-gFm-ye7l-9" value="カテゴリー（鍋とか）" style="text;strokeColor=none;fillColor=none;align=left;verticalAlign=top;spacingLeft=4;spacingRight=4;overflow=hidden;rotatable=0;points=[[0,0.5],[1,0.5]];portConstraint=eastwest;" parent="kj5Q3REVyGP-gFm-ye7l-7" vertex="1">
                    <mxGeometry y="130" width="140" height="26" as="geometry"/>
                </mxCell>
                <mxCell id="kj5Q3REVyGP-gFm-ye7l-12" value="商品画像" style="text;strokeColor=none;fillColor=none;align=left;verticalAlign=top;spacingLeft=4;spacingRight=4;overflow=hidden;rotatable=0;points=[[0,0.5],[1,0.5]];portConstraint=eastwest;" parent="kj5Q3REVyGP-gFm-ye7l-7" vertex="1">
                    <mxGeometry y="156" width="140" height="26" as="geometry"/>
                </mxCell>
                <mxCell id="kj5Q3REVyGP-gFm-ye7l-13" value="商品詳細（大きさとか）" style="text;strokeColor=none;fillColor=none;align=left;verticalAlign=top;spacingLeft=4;spacingRight=4;overflow=hidden;rotatable=0;points=[[0,0.5],[1,0.5]];portConstraint=eastwest;" parent="kj5Q3REVyGP-gFm-ye7l-7" vertex="1">
                    <mxGeometry y="182" width="140" height="26" as="geometry"/>
                </mxCell>
                <mxCell id="kj5Q3REVyGP-gFm-ye7l-14" value="登録日&#10;" style="text;strokeColor=none;fillColor=none;align=left;verticalAlign=top;spacingLeft=4;spacingRight=4;overflow=hidden;rotatable=0;points=[[0,0.5],[1,0.5]];portConstraint=eastwest;" parent="kj5Q3REVyGP-gFm-ye7l-7" vertex="1">
                    <mxGeometry y="208" width="140" height="26" as="geometry"/>
                </mxCell>
                <mxCell id="kj5Q3REVyGP-gFm-ye7l-15" value="更新日&#10;" style="text;strokeColor=none;fillColor=none;align=left;verticalAlign=top;spacingLeft=4;spacingRight=4;overflow=hidden;rotatable=0;points=[[0,0.5],[1,0.5]];portConstraint=eastwest;" parent="kj5Q3REVyGP-gFm-ye7l-7" vertex="1">
                    <mxGeometry y="234" width="140" height="26" as="geometry"/>
                </mxCell>
                <mxCell id="MuO-OoOfj3y4DTlMsyCC-6" value="カート" style="swimlane;fontStyle=0;childLayout=stackLayout;horizontal=1;startSize=26;fillColor=none;horizontalStack=0;resizeParent=1;resizeParentMax=0;resizeLast=0;collapsible=1;marginBottom=0;" parent="G9c_-nv2ug_jjYlDR7pB-1" vertex="1">
                    <mxGeometry x="620" y="160" width="140" height="182" as="geometry">
                        <mxRectangle x="110" y="50" width="120" height="26" as="alternateBounds"/>
                    </mxGeometry>
                </mxCell>
                <mxCell id="MuO-OoOfj3y4DTlMsyCC-7" value="ID" style="text;strokeColor=none;fillColor=none;align=left;verticalAlign=top;spacingLeft=4;spacingRight=4;overflow=hidden;rotatable=0;points=[[0,0.5],[1,0.5]];portConstraint=eastwest;" parent="MuO-OoOfj3y4DTlMsyCC-6" vertex="1">
                    <mxGeometry y="26" width="140" height="26" as="geometry"/>
                </mxCell>
                <mxCell id="MuO-OoOfj3y4DTlMsyCC-8" value="会員ID" style="text;strokeColor=none;fillColor=none;align=left;verticalAlign=top;spacingLeft=4;spacingRight=4;overflow=hidden;rotatable=0;points=[[0,0.5],[1,0.5]];portConstraint=eastwest;" parent="MuO-OoOfj3y4DTlMsyCC-6" vertex="1">
                    <mxGeometry y="52" width="140" height="26" as="geometry"/>
                </mxCell>
                <mxCell id="MuO-OoOfj3y4DTlMsyCC-9" value="商品ID" style="text;strokeColor=none;fillColor=none;align=left;verticalAlign=top;spacingLeft=4;spacingRight=4;overflow=hidden;rotatable=0;points=[[0,0.5],[1,0.5]];portConstraint=eastwest;" parent="MuO-OoOfj3y4DTlMsyCC-6" vertex="1">
                    <mxGeometry y="78" width="140" height="26" as="geometry"/>
                </mxCell>
                <mxCell id="MuO-OoOfj3y4DTlMsyCC-10" value="商品個数" style="text;strokeColor=none;fillColor=none;align=left;verticalAlign=top;spacingLeft=4;spacingRight=4;overflow=hidden;rotatable=0;points=[[0,0.5],[1,0.5]];portConstraint=eastwest;" parent="MuO-OoOfj3y4DTlMsyCC-6" vertex="1">
                    <mxGeometry y="104" width="140" height="26" as="geometry"/>
                </mxCell>
                <mxCell id="MuO-OoOfj3y4DTlMsyCC-13" value="登録日&#10;" style="text;strokeColor=none;fillColor=none;align=left;verticalAlign=top;spacingLeft=4;spacingRight=4;overflow=hidden;rotatable=0;points=[[0,0.5],[1,0.5]];portConstraint=eastwest;" parent="MuO-OoOfj3y4DTlMsyCC-6" vertex="1">
                    <mxGeometry y="130" width="140" height="26" as="geometry"/>
                </mxCell>
                <mxCell id="MuO-OoOfj3y4DTlMsyCC-14" value="更新日&#10;" style="text;strokeColor=none;fillColor=none;align=left;verticalAlign=top;spacingLeft=4;spacingRight=4;overflow=hidden;rotatable=0;points=[[0,0.5],[1,0.5]];portConstraint=eastwest;" parent="MuO-OoOfj3y4DTlMsyCC-6" vertex="1">
                    <mxGeometry y="156" width="140" height="26" as="geometry"/>
                </mxCell>
                <mxCell id="MuO-OoOfj3y4DTlMsyCC-15" value="注文後" style="swimlane;fontStyle=0;childLayout=stackLayout;horizontal=1;startSize=26;fillColor=none;horizontalStack=0;resizeParent=1;resizeParentMax=0;resizeLast=0;collapsible=1;marginBottom=0;" parent="G9c_-nv2ug_jjYlDR7pB-1" vertex="1">
                    <mxGeometry x="900" y="160" width="140" height="104" as="geometry">
                        <mxRectangle x="110" y="50" width="120" height="26" as="alternateBounds"/>
                    </mxGeometry>
                </mxCell>
                <mxCell id="MuO-OoOfj3y4DTlMsyCC-16" value="ID" style="text;strokeColor=none;fillColor=none;align=left;verticalAlign=top;spacingLeft=4;spacingRight=4;overflow=hidden;rotatable=0;points=[[0,0.5],[1,0.5]];portConstraint=eastwest;" parent="MuO-OoOfj3y4DTlMsyCC-15" vertex="1">
                    <mxGeometry y="26" width="140" height="26" as="geometry"/>
                </mxCell>
                <mxCell id="MuO-OoOfj3y4DTlMsyCC-17" value="カートID" style="text;strokeColor=none;fillColor=none;align=left;verticalAlign=top;spacingLeft=4;spacingRight=4;overflow=hidden;rotatable=0;points=[[0,0.5],[1,0.5]];portConstraint=eastwest;" parent="MuO-OoOfj3y4DTlMsyCC-15" vertex="1">
                    <mxGeometry y="52" width="140" height="26" as="geometry"/>
                </mxCell>
                <mxCell id="MuO-OoOfj3y4DTlMsyCC-20" value="注文日&#10;" style="text;strokeColor=none;fillColor=none;align=left;verticalAlign=top;spacingLeft=4;spacingRight=4;overflow=hidden;rotatable=0;points=[[0,0.5],[1,0.5]];portConstraint=eastwest;" parent="MuO-OoOfj3y4DTlMsyCC-15" vertex="1">
                    <mxGeometry y="78" width="140" height="26" as="geometry"/>
                </mxCell>
                <mxCell id="MuO-OoOfj3y4DTlMsyCC-22" value="" style="endArrow=open;startArrow=circlePlus;endFill=0;startFill=0;endSize=8;html=1;entryX=0;entryY=0.5;entryDx=0;entryDy=0;exitX=1;exitY=0.5;exitDx=0;exitDy=0;" parent="G9c_-nv2ug_jjYlDR7pB-1" source="4j1TrCdyYsuOTc-Rs-Ak-19" target="MuO-OoOfj3y4DTlMsyCC-8" edge="1">
                    <mxGeometry width="160" relative="1" as="geometry">
                        <mxPoint x="500" y="200" as="sourcePoint"/>
                        <mxPoint x="610" y="200" as="targetPoint"/>
                        <Array as="points">
                            <mxPoint x="560" y="225"/>
                        </Array>
                    </mxGeometry>
                </mxCell>
                <mxCell id="MuO-OoOfj3y4DTlMsyCC-23" value="" style="endArrow=open;startArrow=circlePlus;endFill=0;startFill=0;endSize=8;html=1;entryX=0;entryY=0.5;entryDx=0;entryDy=0;exitX=1;exitY=0.5;exitDx=0;exitDy=0;" parent="G9c_-nv2ug_jjYlDR7pB-1" source="kj5Q3REVyGP-gFm-ye7l-8" target="MuO-OoOfj3y4DTlMsyCC-9" edge="1">
                    <mxGeometry width="160" relative="1" as="geometry">
                        <mxPoint x="899" y="193" as="sourcePoint"/>
                        <mxPoint x="810" y="370" as="targetPoint"/>
                        <Array as="points">
                            <mxPoint x="580" y="320"/>
                        </Array>
                    </mxGeometry>
                </mxCell>
                <mxCell id="MuO-OoOfj3y4DTlMsyCC-24" value="" style="endArrow=open;startArrow=circlePlus;endFill=0;startFill=0;endSize=8;html=1;exitX=1;exitY=0.5;exitDx=0;exitDy=0;entryX=0;entryY=0.5;entryDx=0;entryDy=0;" parent="G9c_-nv2ug_jjYlDR7pB-1" source="MuO-OoOfj3y4DTlMsyCC-7" target="MuO-OoOfj3y4DTlMsyCC-17" edge="1">
                    <mxGeometry width="160" relative="1" as="geometry">
                        <mxPoint x="780" y="196" as="sourcePoint"/>
                        <mxPoint x="900" y="222" as="targetPoint"/>
                        <Array as="points">
                            <mxPoint x="840" y="222"/>
                        </Array>
                    </mxGeometry>
                </mxCell>
                <mxCell id="mzxdPG56s6nbSC_Rwv7U-0" value="お問い合わせ" style="swimlane;fontStyle=0;childLayout=stackLayout;horizontal=1;startSize=26;fillColor=none;horizontalStack=0;resizeParent=1;resizeParentMax=0;resizeLast=0;collapsible=1;marginBottom=0;" parent="G9c_-nv2ug_jjYlDR7pB-1" vertex="1">
                    <mxGeometry x="80" y="270" width="140" height="182" as="geometry">
                        <mxRectangle x="110" y="50" width="120" height="26" as="alternateBounds"/>
                    </mxGeometry>
                </mxCell>
                <mxCell id="mzxdPG56s6nbSC_Rwv7U-1" value="ID" style="text;strokeColor=none;fillColor=none;align=left;verticalAlign=top;spacingLeft=4;spacingRight=4;overflow=hidden;rotatable=0;points=[[0,0.5],[1,0.5]];portConstraint=eastwest;" parent="mzxdPG56s6nbSC_Rwv7U-0" vertex="1">
                    <mxGeometry y="26" width="140" height="26" as="geometry"/>
                </mxCell>
                <mxCell id="mzxdPG56s6nbSC_Rwv7U-2" value="会員ID" style="text;strokeColor=none;fillColor=none;align=left;verticalAlign=top;spacingLeft=4;spacingRight=4;overflow=hidden;rotatable=0;points=[[0,0.5],[1,0.5]];portConstraint=eastwest;" parent="mzxdPG56s6nbSC_Rwv7U-0" vertex="1">
                    <mxGeometry y="52" width="140" height="26" as="geometry"/>
                </mxCell>
                <mxCell id="mzxdPG56s6nbSC_Rwv7U-3" value="お問い合わせ内容" style="text;strokeColor=none;fillColor=none;align=left;verticalAlign=top;spacingLeft=4;spacingRight=4;overflow=hidden;rotatable=0;points=[[0,0.5],[1,0.5]];portConstraint=eastwest;" parent="mzxdPG56s6nbSC_Rwv7U-0" vertex="1">
                    <mxGeometry y="78" width="140" height="26" as="geometry"/>
                </mxCell>
                <mxCell id="mzxdPG56s6nbSC_Rwv7U-4" value="返信ステータス" style="text;strokeColor=none;fillColor=none;align=left;verticalAlign=top;spacingLeft=4;spacingRight=4;overflow=hidden;rotatable=0;points=[[0,0.5],[1,0.5]];portConstraint=eastwest;" parent="mzxdPG56s6nbSC_Rwv7U-0" vertex="1">
                    <mxGeometry y="104" width="140" height="26" as="geometry"/>
                </mxCell>
                <mxCell id="-ecsbipRUwNu_-W3EWhA-0" value="登録日&#10;" style="text;strokeColor=none;fillColor=none;align=left;verticalAlign=top;spacingLeft=4;spacingRight=4;overflow=hidden;rotatable=0;points=[[0,0.5],[1,0.5]];portConstraint=eastwest;" parent="mzxdPG56s6nbSC_Rwv7U-0" vertex="1">
                    <mxGeometry y="130" width="140" height="26" as="geometry"/>
                </mxCell>
                <mxCell id="-ecsbipRUwNu_-W3EWhA-1" value="更新日&#10;" style="text;strokeColor=none;fillColor=none;align=left;verticalAlign=top;spacingLeft=4;spacingRight=4;overflow=hidden;rotatable=0;points=[[0,0.5],[1,0.5]];portConstraint=eastwest;" parent="mzxdPG56s6nbSC_Rwv7U-0" vertex="1">
                    <mxGeometry y="156" width="140" height="26" as="geometry"/>
                </mxCell>
                <mxCell id="mzxdPG56s6nbSC_Rwv7U-9" value="" style="endArrow=open;startArrow=circlePlus;endFill=0;startFill=0;endSize=8;html=1;entryX=1;entryY=0.5;entryDx=0;entryDy=0;exitX=0;exitY=0.5;exitDx=0;exitDy=0;" parent="G9c_-nv2ug_jjYlDR7pB-1" source="4j1TrCdyYsuOTc-Rs-Ak-19" target="mzxdPG56s6nbSC_Rwv7U-2" edge="1">
                    <mxGeometry width="160" relative="1" as="geometry">
                        <mxPoint x="509.9999999999998" y="209" as="sourcePoint"/>
                        <mxPoint x="629.9999999999998" y="235" as="targetPoint"/>
                        <Array as="points"/>
                    </mxGeometry>
                </mxCell>
            </root>
        </mxGraphModel>
    </diagram>
</mxfile>